<?xml version="1.0" encoding="utf-8"?>
<!-- Generator: Adobe Illustrator 25.0.1, SVG Export Plug-In . SVG Version: 6.00 Build 0)  -->
<svg version="1.1" id="Layer_1" xmlns="http://www.w3.org/2000/svg" xmlns:xlink="http://www.w3.org/1999/xlink" x="0px" y="0px"
	 viewBox="0 0 20 20" style="enable-background:new 0 0 20 20;" xml:space="preserve">
<style type="text/css">
	.st0{fill:#003CBE;}
	.st1{fill:#FFFFFF;}
</style>
<g>
	<path class="st0" d="M10,0.1c-5.4,0-9.9,4.4-9.9,9.9s4.4,9.9,9.9,9.9c5.4,0,9.9-4.4,9.9-9.9S15.4,0.1,10,0.1L10,0.1z"/>
</g>
<path class="st1" d="M8.9,13.2c-0.1,0-0.3-0.1-0.4-0.1L5.4,9.9c-0.2-0.2-0.2-0.5,0-0.7C5.6,9,5.9,9,6.1,9.2L8.9,12l5-5
	c0.2-0.2,0.5-0.2,0.7,0c0.2,0.2,0.2,0.5,0,0.7l-5.3,5.3C9.2,13.2,9,13.2,8.9,13.2z"/>
</svg>
