<?xml version="1.0" encoding="utf-8"?>
<!-- Generator: Adobe Illustrator 25.0.1, SVG Export Plug-In . SVG Version: 6.00 Build 0)  -->
<svg version="1.1" id="Layer_1" xmlns="http://www.w3.org/2000/svg" xmlns:xlink="http://www.w3.org/1999/xlink" x="0px" y="0px"
	 viewBox="0 0 520 49" style="enable-background:new 0 0 520 49;" xml:space="preserve">
<style type="text/css">
	.st0{fill:#101135;}
</style>
<g>
	<path class="st0" d="M0,8.7c0-1.6,0.5-3.1,1.5-4.2c1-1.2,2.2-1.7,3.6-1.7h16.3v6.4H7.1v20.5h15.7V36H5.1c-1.4,0-2.6-0.6-3.6-1.7
		C0.5,33.1,0,31.7,0,30V8.7z M26.2,48.7V22h-8.5v-6.4h8.5V2.8h7.1v45.9H26.2z M36.6,48.7V2.8h7.1v45.9H36.6z"/>
	<path class="st0" d="M63.7,2.7c2,0,3.9,0.4,5.7,1.3c1.7,0.8,3.3,2,4.6,3.4c1.3,1.5,2.3,3.2,3,5.2c0.7,2,1.1,4.1,1.1,6.4
		c0,2.3-0.4,4.5-1.1,6.5c-0.7,2-1.7,3.8-3,5.2c-1.3,1.5-2.8,2.6-4.6,3.4s-3.6,1.2-5.7,1.2c-2.1,0-4-0.4-5.7-1.2
		c-1.7-0.8-3.3-2-4.6-3.4c-1.3-1.5-2.2-3.2-3-5.2c-0.7-2-1.1-4.2-1.1-6.5c0-2.3,0.4-4.4,1.1-6.4c0.7-2,1.7-3.7,3-5.2
		C54.7,6,56.2,4.8,58,4C59.7,3.1,61.7,2.7,63.7,2.7z M63.7,9.1c-2.1,0-3.9,1-5.2,2.9c-1.4,1.9-2,4.3-2,7.2c0,2.9,0.7,5.3,2,7.2
		c1.4,1.9,3.1,2.8,5.2,2.8c2.1,0,3.9-0.9,5.2-2.8c1.4-1.9,2-4.3,2-7.2c0-2.9-0.7-5.3-2-7.2C67.6,10,65.9,9.1,63.7,9.1z M93.5,48.7
		h-7.1V2.8h7.1V48.7z"/>
	<path class="st0" d="M101.8,8.7c0-1.6,0.5-3.1,1.5-4.2c1-1.2,2.2-1.7,3.6-1.7h21.8v6.4h-19.7v8.3h19.2v6.4h-19.2v9.3h21v6.4h-23
		c-1.4,0-2.6-0.6-3.6-1.7c-1-1.2-1.5-2.6-1.5-4.2V8.7z M144.3,48.7h-7.1V23.8h-7.4v-6.4h7.4V2.8h7.1V48.7z"/>
	<path class="st0" d="M213.9,19.4v5.8h-45.6v-5.8H213.9z M170.7,11.7h6.9V8.4h-6.9V2.8h40.8v5.7h-6.9v3.2h6.9v5.7h-40.8V11.7z
		 M176.3,48.7c-1.7,0-3.1-0.5-4.1-1.6s-1.5-2.4-1.5-3.9V35h33.6v-2h-33.6v-5.9h37c1.1,0,2.1,0.3,2.7,1c0.7,0.7,1,1.6,1,2.7v9.5
		h-33.6v2.1h34.1v6.1H176.3z M184.7,11.7h12.7V8.4h-12.7V11.7z"/>
	<path class="st0" d="M235.4,2.8c1.4,0,2.6,0.6,3.6,1.7c1,1.2,1.5,2.6,1.5,4.2v10.6h4.9V2.8h7.1v45.9h-7.1v-23h-19v13.8h14.3v6.4
		h-16.4c-1.4,0-2.6-0.6-3.6-1.7c-1-1.2-1.5-2.6-1.5-4.2V19.3h14.1V9.1h-14.1V2.8H235.4z M255.8,48.7V2.8h7.1v45.9H255.8z"/>
	<path class="st0" d="M282.9,2.7c2,0,3.9,0.4,5.7,1.3c1.7,0.8,3.3,2,4.6,3.4c1.3,1.5,2.3,3.2,3,5.2c0.7,2,1.1,4.1,1.1,6.4
		c0,2.3-0.4,4.5-1.1,6.5c-0.7,2-1.7,3.8-3,5.2c-1.3,1.5-2.8,2.6-4.6,3.4c-1.7,0.8-3.6,1.2-5.7,1.2c-2.1,0-4-0.4-5.7-1.2
		s-3.3-2-4.6-3.4c-1.3-1.5-2.2-3.2-3-5.2c-0.7-2-1.1-4.2-1.1-6.5c0-2.3,0.4-4.4,1.1-6.4c0.7-2,1.7-3.7,3-5.2
		c1.3-1.5,2.8-2.6,4.6-3.4C278.9,3.1,280.8,2.7,282.9,2.7z M282.9,9.1c-2.1,0-3.9,1-5.2,2.9c-1.4,1.9-2,4.3-2,7.2
		c0,2.9,0.7,5.3,2,7.2c1.4,1.9,3.1,2.8,5.2,2.8s3.9-0.9,5.2-2.8c1.4-1.9,2-4.3,2-7.2c0-2.9-0.7-5.3-2-7.2
		C286.8,10,285,9.1,282.9,9.1z M312.7,48.7h-7.1V2.8h7.1V48.7z"/>
	<path class="st0" d="M357,39.4V9.1h-34.3V2.8h35.9c1.6,0,2.9,0.6,3.9,1.6c1.1,1.1,1.6,2.4,1.6,3.8v31.2h2.4v6.4H321v-6.4H357z"/>
	<path class="st0" d="M398.2,23.6H379v9.5h22v6.4h-24.1c-1.4,0-2.6-0.6-3.6-1.7c-1-1.2-1.5-2.6-1.5-4.2V17.2h19.3V9.1h-19.3V2.8
		h21.3c1.4,0,2.6,0.6,3.6,1.7c1,1.2,1.5,2.6,1.5,4.2V23.6z M420,25.7h-7.5v23h-7.1V2.8h7.1v16.6h7.5V25.7z"/>
	<path class="st0" d="M468.3,22.6V29h-19.3V37H442V29h-19.3v-6.4h11.8c-1.2-1.1-2.1-2.3-2.7-3.8c-0.6-1.5-0.9-3.1-0.9-4.9
		c0-1.9,0.4-3.7,1.1-5.4s1.8-3.1,3.1-4.4c1.3-1.2,2.8-2.2,4.6-2.9c1.8-0.7,3.7-1.1,5.9-1.1c2.1,0,4,0.4,5.8,1.1
		c1.8,0.7,3.3,1.7,4.6,2.9c1.3,1.3,2.4,2.7,3.1,4.4c0.7,1.6,1.1,3.4,1.1,5.4c0,1.8-0.3,3.4-1,4.9c-0.6,1.5-1.5,2.7-2.7,3.8H468.3z
		 M425.2,43.1V32.6h7.1v9.7h33.9v6.4h-35.4c-1.7,0-3.1-0.5-4.1-1.6S425.2,44.6,425.2,43.1z M445.5,6.7c-2.2,0-4.1,0.7-5.5,2.1
		c-1.4,1.4-2.1,3.1-2.1,5.2c0,2.1,0.7,3.8,2.1,5.2c1.4,1.4,3.2,2.1,5.5,2.1c2.2,0,4-0.7,5.4-2.1c1.4-1.4,2.1-3.1,2.1-5.2
		c0-2-0.7-3.8-2.1-5.2C449.6,7.4,447.7,6.7,445.5,6.7z"/>
	<path class="st0" d="M472.9,46.9v-6.4H520v6.4H472.9z M476.1,8.7c0-1.6,0.5-3.1,1.5-4.2c1-1.2,2.2-1.7,3.7-1.7h35.7v6.4h-33.7v15.3
		h33.7v6.4h-35.7c-1.5,0-2.7-0.6-3.7-1.7c-1-1.2-1.5-2.6-1.5-4.2V8.7z"/>
</g>
</svg>
