<?xml version="1.0" encoding="utf-8"?>
<!-- Generator: Adobe Illustrator 25.0.1, SVG Export Plug-In . SVG Version: 6.00 Build 0)  -->
<svg version="1.1" id="Layer_1" xmlns="http://www.w3.org/2000/svg" xmlns:xlink="http://www.w3.org/1999/xlink" x="0px" y="0px"
	 viewBox="0 0 131 46" style="enable-background:new 0 0 131 46;" xml:space="preserve">
<style type="text/css">
	.st0{fill:#FFFFFF;}
	.st1{display:none;fill:#FFFFFF;enable-background:new    ;}
	.st2{font-family:'Korail2007';}
	.st3{font-size:16px;}
</style>
<g>
	<g>
		<path class="st0" d="M99.3,5.4c-1.2,0-1.8,0.4-2,1.6l-3,18.5h6.5l3.5-20.1L99.3,5.4L99.3,5.4z"/>
		<path class="st0" d="M23.4,5.4h-5.7c-0.9,0-1.4,0.3-1.9,0.8l-6.5,6.3l1.6-7.1H5.7C4.5,5.4,4,5.8,3.7,7l0,0L0.3,25.5h6.4l1.8-8.7
			l6,8.7h8l-8-11.4L23.4,5.4L23.4,5.4z"/>
		<path class="st0" d="M111.6,20.8l2.6-15.4h-5c-1.2,0-1.7,0.4-2,1.5l-3,18.6h15.9l0.6-4.7H111.6L111.6,20.8z"/>
		<g>
			<path class="st0" d="M83.3,11.7l2.6,13.8h6.9L88.5,5.4h-6.4c-1,0-1.4,0.3-1.9,1l-8.3,16.5l-5.7-5.2c2.6-0.7,5.5-2.7,6.3-6.1
				c1.4-6-3.6-6.2-5.3-6.2h-9.1c-1.2,0-1.4,0.3-1.7,1.3l-1.8,8.4c-4.5-3-14.8-8.9-22-9c-1.8,0-3.1,0.3-4.4,1C28,7.2,28,7.2,27.9,7.2
				L28,7c0.8-0.9,2.4-2.5,5-3.3c0,0,4.3-1.5,10,2c3.3,2,5.6,3.7,7.8,5.5c-1.7-6.9-8-11.8-15.4-11.1c-6.6,0.6-11.8,5.5-13.1,11.7
				c3.6-3.3,10.4-4.4,20.8-0.8c2.3,0.8,4.5,1.7,6.4,2.5c1.8,0.8,3.6,1.8,5.5,2.8c3.9,2.3,8.3,5.4,11.8,9.2h9.7L83.3,11.7z
				 M61.3,15.4c0.2-1,1.3-6.2,1.4-6.9h2.4c0,0,2.4-0.1,1.5,3.1C66.6,11.6,65.7,15.4,61.3,15.4z"/>
		</g>
		<path class="st0" d="M60.3,20.4c-0.5,2.3-1.1,5.1-1.1,5.1h-6.8l1.5-7.2c-1.5-0.5-2.6-0.8-3-0.9c-1.2,6.2-6.3,11.1-13,11.7
			c-4.3,0.4-8.3-1.1-11.2-3.8l0,0c0,0-2.8-2.6-2.6-6.3c0.2-3.8,3.6-5.3,3.6-5.3c3.9-2.1,12.5-2.3,24.7,2.9
			C52.3,16.5,56.4,18.1,60.3,20.4L60.3,20.4z"/>
	</g>
	<g>
		<path class="st0" d="M52.5,33.8c0-0.5,0.1-0.9,0.4-1.3c0.3-0.3,0.7-0.5,1.1-0.5h5v2h-4.3v6.2h4.7v1.9H54c-0.4,0-0.8-0.2-1.1-0.5
			s-0.4-0.8-0.4-1.3V33.8z M60.4,45.9v-8.1h-2.6v-1.9h2.6V32h2.1v13.9H60.4z M63.6,45.9V32h2.2v13.9H63.6z"/>
		<path class="st0" d="M71.6,32c0.6,0,1.2,0.1,1.7,0.4c0.5,0.3,1,0.6,1.4,1c0.4,0.5,0.7,1,0.9,1.6s0.3,1.2,0.3,1.9s-0.1,1.4-0.3,2
			s-0.5,1.1-0.9,1.6c-0.4,0.4-0.9,0.8-1.4,1s-1.1,0.4-1.7,0.4s-1.2-0.1-1.7-0.4c-0.5-0.2-1-0.6-1.4-1c-0.4-0.5-0.7-1-0.9-1.6
			c-0.2-0.6-0.3-1.3-0.3-2s0.1-1.3,0.3-1.9c0.2-0.6,0.5-1.1,0.9-1.6c0.4-0.4,0.9-0.8,1.4-1C70.4,32.1,71,32,71.6,32z M71.6,33.9
			c-0.6,0-1.2,0.3-1.6,0.9c-0.4,0.6-0.6,1.3-0.6,2.2s0.2,1.6,0.6,2.2c0.4,0.6,0.9,0.9,1.6,0.9s1.2-0.3,1.6-0.9
			c0.4-0.6,0.6-1.3,0.6-2.2s-0.2-1.6-0.6-2.2C72.8,34.2,72.3,33.9,71.6,33.9z M80.6,45.9h-2.2V32h2.2V45.9z"/>
		<path class="st0" d="M82.9,33.8c0-0.5,0.1-0.9,0.4-1.3c0.3-0.3,0.7-0.5,1.1-0.5H91v2h-6v2.5h5.8v1.9H85v2.8h6.3v1.9h-7
			c-0.4,0-0.8-0.2-1.1-0.5c-0.3-0.3-0.4-0.8-0.4-1.3L82.9,33.8L82.9,33.8z M95.8,45.9h-2.2v-7.5h-2.2v-1.9h2.2V32h2.2V45.9z"/>
		<path class="st0" d="M102.5,45.3v-1.9h6v-3.3h-5.1v-1.9h2.1V34h-2.1v-2h12.3v2h-2.1v4.3h2.1v1.9h-5.1v3.3h6v1.9h-14.1V45.3z
			 M107.6,38.3h3.8V34h-3.8V38.3z"/>
		<path class="st0" d="M120,37h6.2v1.7H119c-0.4,0-0.6-0.1-0.8-0.3c-0.2-0.2-0.3-0.5-0.3-0.8v-4.4c0-0.3,0.1-0.6,0.3-0.8
			c0.2-0.2,0.5-0.3,0.8-0.3h7v1.7h-6v0.8h5.6v1.7H120V37z M120.5,45.9c-0.5,0-0.9-0.2-1.2-0.5s-0.4-0.7-0.4-1.2v-2.5h9.7V41h-9.7
			v-1.7h10.7c0.4,0,0.6,0.1,0.8,0.3s0.3,0.5,0.3,0.8v2.9H121v0.8h9.8v1.8C130.8,45.9,120.5,45.9,120.5,45.9z M130.7,38.9h-2.2v-2.6
			h-2.1v-1.9h2.1V32h2.2V38.9z"/>
	</g>
	<text transform="matrix(1 0 0 1 51.4191 45.497)" class="st1 st2 st3">데이터 포털</text>
</g>
</svg>
