<?xml version="1.0" encoding="utf-8"?>
<!-- Generator: Adobe Illustrator 25.0.1, SVG Export Plug-In . SVG Version: 6.00 Build 0)  -->
<svg version="1.1" id="Layer_1" xmlns="http://www.w3.org/2000/svg" xmlns:xlink="http://www.w3.org/1999/xlink" x="0px" y="0px"
	 viewBox="0 0 208 46" style="enable-background:new 0 0 208 46;" xml:space="preserve">
<style type="text/css">
	.st0{fill:#0066B2;}
	.st1{fill:url(#SVGID_1_);}
	.st2{fill:url(#SVGID_2_);}
	.st3{fill:#4D555B;}
</style>
<g>
	<g>
		<path class="st0" d="M99.2,5.4c-1.2,0-1.8,0.4-2,1.6l-3,18.5h6.5l3.5-20.1H99.2L99.2,5.4z"/>
		<path class="st0" d="M23.3,5.4h-5.7c-0.9,0-1.4,0.3-1.9,0.8l-6.5,6.3l1.6-7.1H5.6c-1.2,0-1.7,0.4-2,1.6l0,0L0.2,25.5h6.4l1.8-8.7
			l6,8.7h8l-8-11.4L23.3,5.4L23.3,5.4z"/>
		<path class="st0" d="M111.5,20.8l2.6-15.4h-5c-1.2,0-1.7,0.4-2,1.5l-3,18.6H120l0.6-4.7H111.5L111.5,20.8z"/>
		<g>
			
				<radialGradient id="SVGID_1_" cx="143.5786" cy="280.5617" r="19.2175" gradientTransform="matrix(0.9211 0 0 0.9211 -97.2686 -247.1968)" gradientUnits="userSpaceOnUse">
				<stop  offset="0" style="stop-color:#00AEDB"/>
				<stop  offset="0.2" style="stop-color:#00AEDB"/>
				<stop  offset="1" style="stop-color:#0066B2"/>
			</radialGradient>
			<path class="st1" d="M83.2,11.7l2.6,13.8h6.9L88.4,5.4h-6.4c-1,0-1.4,0.3-1.9,1l-8.3,16.5l-5.7-5.2c2.6-0.7,5.5-2.7,6.3-6.1
				c1.4-6-3.6-6.2-5.3-6.2H58c-1.2,0-1.4,0.3-1.7,1.3l-1.8,8.4c-4.5-3-14.8-8.9-22-9c-1.8,0-3.1,0.3-4.4,1c-0.2,0.1-0.2,0.1-0.3,0.1
				L27.9,7c0.8-0.9,2.4-2.5,5-3.3c0,0,4.3-1.5,10,2c3.3,2,5.6,3.7,7.8,5.5C49,4.3,42.7-0.6,35.3,0.1c-6.6,0.6-11.8,5.5-13.1,11.7
				C25.8,8.5,32.6,7.4,43,11c2.3,0.8,4.5,1.7,6.4,2.5c1.8,0.8,3.6,1.8,5.5,2.8c3.9,2.3,8.3,5.4,11.8,9.2h9.7L83.2,11.7z M61.2,15.4
				c0.2-1,1.3-6.2,1.4-6.9H65c0,0,2.4-0.1,1.5,3.1C66.5,11.6,65.6,15.4,61.2,15.4z"/>
		</g>
		
			<radialGradient id="SVGID_2_" cx="100.6433" cy="913.7823" r="3.4921" gradientTransform="matrix(5.0449 0 0 5.0449 -472.8664 -4598.7798)" gradientUnits="userSpaceOnUse">
			<stop  offset="0" style="stop-color:#00AEDB"/>
			<stop  offset="0.2" style="stop-color:#00AEDB"/>
			<stop  offset="1" style="stop-color:#0066B2"/>
		</radialGradient>
		<path class="st2" d="M60.2,20.4c-0.5,2.3-1.1,5.1-1.1,5.1h-6.8l1.5-7.2c-1.5-0.5-2.6-0.8-3-0.9c-1.2,6.2-6.3,11.1-13,11.7
			c-4.3,0.4-8.3-1.1-11.2-3.8l0,0c0,0-2.8-2.6-2.6-6.3c0.2-3.8,3.6-5.3,3.6-5.3c3.9-2.1,12.5-2.3,24.7,2.9
			C52.2,16.5,56.3,18.1,60.2,20.4L60.2,20.4z"/>
	</g>
	<g>
		<path class="st3" d="M52.5,33.7c0-0.5,0.1-0.9,0.4-1.3c0.3-0.3,0.7-0.5,1.1-0.5h4.9v1.9h-4.3V40h4.7v2h-5.4
			c-0.4,0-0.8-0.2-1.1-0.5s-0.4-0.8-0.4-1.3L52.5,33.7L52.5,33.7z M60.4,45.8v-8.1h-2.6v-1.9h2.6v-3.9h2.1v13.9
			C62.5,45.8,60.4,45.8,60.4,45.8z M63.6,45.8V31.9h2.2v13.9H63.6z"/>
		<path class="st3" d="M71.6,31.9c0.6,0,1.2,0.1,1.7,0.4s1,0.6,1.4,1c0.4,0.5,0.7,1,0.9,1.6s0.3,1.2,0.3,1.9s-0.1,1.4-0.3,2
			s-0.5,1.1-0.9,1.6c-0.4,0.4-0.9,0.8-1.4,1s-1.1,0.4-1.7,0.4s-1.2-0.1-1.7-0.4c-0.5-0.2-1-0.6-1.4-1c-0.4-0.5-0.7-1-0.9-1.6
			c-0.2-0.6-0.3-1.3-0.3-2s0.1-1.3,0.3-1.9c0.2-0.6,0.5-1.1,0.9-1.6c0.4-0.4,0.9-0.8,1.4-1C70.4,32,71,31.9,71.6,31.9z M71.6,33.8
			c-0.6,0-1.2,0.3-1.6,0.9c-0.4,0.6-0.6,1.3-0.6,2.2s0.2,1.6,0.6,2.2c0.4,0.6,0.9,0.9,1.6,0.9s1.2-0.3,1.6-0.9
			c0.4-0.6,0.6-1.3,0.6-2.2s-0.2-1.6-0.6-2.2S72.2,33.8,71.6,33.8z M80.6,45.8h-2.2V31.9h2.2V45.8z"/>
		<path class="st3" d="M82.9,33.7c0-0.5,0.1-0.9,0.4-1.3c0.3-0.3,0.7-0.5,1.1-0.5H91v1.9h-6v2.5h5.8v1.9H85V41h6.3v2h-7
			c-0.4,0-0.8-0.2-1.1-0.5c-0.3-0.3-0.4-0.8-0.4-1.3L82.9,33.7L82.9,33.7z M95.7,45.8h-2.2v-7.5h-2.2v-1.9h2.2V32h2.2V45.8z"/>
		<path class="st3" d="M116.4,37v1.7h-13.8V37H116.4z M103.4,34.6h2.1v-1h-2.1v-1.7h12.3v1.7h-2.1v1h2.1v1.7h-12.3V34.6z
			 M105.1,45.8c-0.5,0-0.9-0.2-1.2-0.5c-0.3-0.3-0.5-0.7-0.5-1.2v-2.4h10.2v-0.6h-10.2v-1.8h11.2c0.3,0,0.6,0.1,0.8,0.3
			c0.2,0.2,0.3,0.5,0.3,0.8v2.9h-10.2V44h10.3v1.8H105.1z M107.6,34.6h3.8v-1h-3.8V34.6z"/>
		<path class="st3" d="M122.8,31.9c0.4,0,0.8,0.2,1.1,0.5c0.3,0.3,0.4,0.8,0.4,1.3v3.2h1.5v-5h2.1v13.9h-2.1v-7h-5.7V43h4.3v1.9
			h-4.9c-0.4,0-0.8-0.2-1.1-0.5c-0.3-0.3-0.4-0.8-0.4-1.3v-6.2h4.3v-3.1H118v-1.9C118,31.9,122.8,31.9,122.8,31.9z M128.9,45.8V31.9
			h2.2v13.9H128.9z"/>
		<path class="st3" d="M136.9,31.9c0.6,0,1.2,0.1,1.7,0.4s1,0.6,1.4,1c0.4,0.5,0.7,1,0.9,1.6c0.2,0.6,0.3,1.2,0.3,1.9
			s-0.1,1.4-0.3,2c-0.2,0.6-0.5,1.1-0.9,1.6c-0.4,0.4-0.9,0.8-1.4,1s-1.1,0.4-1.7,0.4s-1.2-0.1-1.7-0.4c-0.5-0.2-1-0.6-1.4-1
			c-0.4-0.5-0.7-1-0.9-1.6c-0.2-0.6-0.3-1.3-0.3-2s0.1-1.3,0.3-1.9c0.2-0.6,0.5-1.1,0.9-1.6c0.4-0.4,0.8-0.8,1.4-1
			C135.7,32,136.3,31.9,136.9,31.9z M136.9,33.8c-0.6,0-1.2,0.3-1.6,0.9c-0.4,0.6-0.6,1.3-0.6,2.2s0.2,1.6,0.6,2.2
			c0.4,0.6,0.9,0.9,1.6,0.9c0.6,0,1.2-0.3,1.6-0.9c0.4-0.6,0.6-1.3,0.6-2.2s-0.2-1.6-0.6-2.2C138.1,34.1,137.6,33.8,136.9,33.8z
			 M145.9,45.8h-2.2V31.9h2.2V45.8z"/>
		<path class="st3" d="M159.1,43v-9.1h-10.3V32h10.8c0.5,0,0.9,0.2,1.2,0.5c0.3,0.3,0.5,0.7,0.5,1.2V43h0.7v1.9h-13.8V43H159.1z"/>
		<path class="st3" d="M171.4,38.2h-5.8v2.9h6.6V43h-7.3c-0.4,0-0.8-0.2-1.1-0.5c-0.3-0.3-0.4-0.8-0.4-1.3v-4.9h5.8v-2.4h-5.8V32
			h6.4c0.4,0,0.8,0.2,1.1,0.5c0.3,0.3,0.4,0.8,0.4,1.3v4.4H171.4z M178,38.9h-2.3v7h-2.1v-14h2.1v5h2.3V38.9z"/>
		<path class="st3" d="M192.4,37.9v1.9h-5.8v2.4h-2.1v-2.4h-5.8v-1.9h3.6c-0.4-0.3-0.6-0.7-0.8-1.1c-0.2-0.4-0.3-0.9-0.3-1.5
			s0.1-1.1,0.3-1.6c0.2-0.5,0.5-0.9,0.9-1.3c0.4-0.4,0.9-0.7,1.4-0.9c0.5-0.2,1.1-0.3,1.8-0.3c0.6,0,1.2,0.1,1.8,0.3
			c0.5,0.2,1,0.5,1.4,0.9c0.4,0.4,0.7,0.8,0.9,1.3c0.2,0.5,0.3,1,0.3,1.6c0,0.5-0.1,1-0.3,1.5c-0.2,0.4-0.5,0.8-0.8,1.1H192.4z
			 M179.4,44.1V41h2.2v2.9h10.2v1.9h-10.7c-0.5,0-0.9-0.2-1.2-0.5C179.5,45,179.4,44.6,179.4,44.1z M185.5,33.1
			c-0.7,0-1.2,0.2-1.7,0.6s-0.6,0.9-0.6,1.6c0,0.6,0.2,1.2,0.6,1.6c0.4,0.4,1,0.6,1.7,0.6c0.7,0,1.2-0.2,1.6-0.6
			c0.4-0.4,0.6-0.9,0.6-1.6c0-0.6-0.2-1.1-0.6-1.6C186.7,33.2,186.2,33.1,185.5,33.1z"/>
		<path class="st3" d="M193.6,45.3v-1.9h14.2v1.9H193.6z M194.6,33.7c0-0.5,0.1-0.9,0.4-1.3c0.3-0.3,0.7-0.5,1.1-0.5h10.8v1.9h-10.2
			v4.6h10.2v1.9h-10.8c-0.4,0-0.8-0.2-1.1-0.5c-0.3-0.3-0.4-0.8-0.4-1.3V33.7z"/>
	</g>
</g>
</svg>
