<?xml version="1.0" encoding="utf-8"?>
<!-- Generator: Adobe Illustrator 25.0.1, SVG Export Plug-In . SVG Version: 6.00 Build 0)  -->
<svg version="1.1" id="Layer_1" xmlns="http://www.w3.org/2000/svg" xmlns:xlink="http://www.w3.org/1999/xlink" x="0px" y="0px"
	 viewBox="0 0 208 46" style="enable-background:new 0 0 208 46;" xml:space="preserve">
<style type="text/css">
	.st0{fill:#FFFFFF;}
</style>
<g>
	<g>
		<g>
			<path class="st0" d="M98,6.1c-1.2,0-1.7,0.4-2,1.6l-2.9,18h6.5l3.2-19.5H98L98,6.1z"/>
			<path class="st0" d="M23.4,5.5h-5.7c-0.9,0-1.4,0.3-1.9,0.8l-6.5,6.3l1.6-7.1H5.8c-1.2,0-1.7,0.4-2,1.6l0,0L0.3,25.6h6.4l1.8-8.7
				l6,8.7h8l-8-11.3L23.4,5.5L23.4,5.5z"/>
			<path class="st0" d="M110.8,21l2.6-15h-4.8c-1.2,0-1.7,0.4-1.9,1.5l-2.9,18h15.4l0.6-4.6H110.8L110.8,21z"/>
			<path class="st0" d="M76.2,25.6l6.5-13.3l0-0.4l2.6,13.7H92L87.9,6.1h-6.2c-1,0-1.4,0.3-1.8,1l-8,15.9l-5.7-5.2
				c2.6-0.7,5.5-2.7,6.3-6.1c1.4-5.9-3.6-6.2-5.2-6.2H58c-1.2,0-1.4,0.3-1.7,1.3l-1.8,8.3c-4.5-2.9-14.8-8.9-22-9
				c-1.8,0-3.1,0.3-4.4,1c-0.2,0.1-0.2,0.1-0.3,0.1L28,7.1c0.8-1,2.4-2.5,5-3.3c0,0,4.3-1.5,10,2c3.3,2,5.6,3.7,7.7,5.5
				c-1.6-6.8-8-11.7-15.3-11.1c-6.6,0.6-11.8,5.4-13,11.6c3.5-3.2,10.3-4.3,20.6-0.7c2.3,0.8,4.5,1.7,6.4,2.5
				c1.8,0.8,3.6,1.7,5.5,2.8c3.9,2.2,8.2,5.4,11.8,9.1H76.2L76.2,25.6 M61.1,15.5c0.2-1,1.3-6.2,1.4-6.9h2.4c0,0,2.4-0.1,1.5,3.1
				C66.5,11.7,65.5,15.5,61.1,15.5L61.1,15.5z"/>
			<path class="st0" d="M60.1,20.5c-0.5,2.2-1.1,5.1-1.1,5.1h-6.7l1.5-7.2c-1.5-0.5-2.6-0.8-3-0.9c-1.2,6.2-6.3,11.1-12.9,11.6
				c-4.3,0.4-8.3-1.1-11.2-3.8l0,0c0,0-2.8-2.6-2.6-6.2c0.2-3.8,3.6-5.3,3.6-5.3c3.9-2.1,12.5-2.3,24.6,2.9
				C52.2,16.6,56.3,18.2,60.1,20.5L60.1,20.5z"/>
		</g>
	</g>
	<g>
		<path class="st0" d="M52.3,33.7c0-0.5,0.1-0.9,0.4-1.3c0.3-0.3,0.7-0.5,1.1-0.5h4.9v1.9h-4.3V40h4.7V42h-5.4
			c-0.4,0-0.8-0.2-1.1-0.5c-0.3-0.3-0.4-0.8-0.4-1.3V33.7z M60.2,45.8v-8.1h-2.6v-1.9h2.6v-3.9h2.1v13.9H60.2z M63.4,45.8V31.9h2.2
			v13.9H63.4z"/>
		<path class="st0" d="M71.4,31.9c0.6,0,1.2,0.1,1.7,0.4c0.5,0.3,1,0.6,1.4,1c0.4,0.5,0.7,1,0.9,1.6s0.3,1.2,0.3,1.9
			c0,0.7-0.1,1.4-0.3,2s-0.5,1.1-0.9,1.6c-0.4,0.4-0.9,0.8-1.4,1c-0.5,0.2-1.1,0.4-1.7,0.4c-0.6,0-1.2-0.1-1.7-0.4
			c-0.5-0.2-1-0.6-1.4-1c-0.4-0.5-0.7-1-0.9-1.6c-0.2-0.6-0.3-1.3-0.3-2c0-0.7,0.1-1.3,0.3-1.9c0.2-0.6,0.5-1.1,0.9-1.6
			c0.4-0.4,0.9-0.8,1.4-1C70.2,32,70.8,31.9,71.4,31.9z M71.4,33.8c-0.6,0-1.2,0.3-1.6,0.9c-0.4,0.6-0.6,1.3-0.6,2.2
			c0,0.9,0.2,1.6,0.6,2.2c0.4,0.6,0.9,0.9,1.6,0.9s1.2-0.3,1.6-0.9c0.4-0.6,0.6-1.3,0.6-2.2c0-0.9-0.2-1.6-0.6-2.2
			C72.6,34.1,72,33.8,71.4,33.8z M80.4,45.8h-2.2V31.9h2.2V45.8z"/>
		<path class="st0" d="M82.7,33.7c0-0.5,0.1-0.9,0.4-1.3c0.3-0.3,0.7-0.5,1.1-0.5h6.6v1.9h-6v2.5h5.8v1.9h-5.8v2.8h6.3V43h-7
			c-0.4,0-0.8-0.2-1.1-0.5c-0.3-0.3-0.4-0.8-0.4-1.3V33.7z M95.5,45.8h-2.2v-7.5h-2.2v-1.9h2.2v-4.4h2.2V45.8z"/>
		<path class="st0" d="M116.2,37v1.7h-13.8V37H116.2z M103.2,34.6h2.1v-1h-2.1v-1.7h12.3v1.7h-2.1v1h2.1v1.7h-12.3V34.6z
			 M104.9,45.8c-0.5,0-0.9-0.2-1.2-0.5c-0.3-0.3-0.5-0.7-0.5-1.2v-2.4h10.2v-0.6h-10.2v-1.8h11.2c0.3,0,0.6,0.1,0.8,0.3
			c0.2,0.2,0.3,0.5,0.3,0.8v2.9h-10.2V44h10.3v1.8H104.9z M107.4,34.6h3.8v-1h-3.8V34.6z"/>
		<path class="st0" d="M122.6,31.9c0.4,0,0.8,0.2,1.1,0.5c0.3,0.3,0.4,0.8,0.4,1.3v3.2h1.5v-5h2.1v13.9h-2.1v-7h-5.7V43h4.3v1.9
			h-4.9c-0.4,0-0.8-0.2-1.1-0.5c-0.3-0.3-0.4-0.8-0.4-1.3v-6.2h4.3v-3.1h-4.3v-1.9H122.6z M128.7,45.8V31.9h2.2v13.9H128.7z"/>
		<path class="st0" d="M136.7,31.9c0.6,0,1.2,0.1,1.7,0.4c0.5,0.3,1,0.6,1.4,1c0.4,0.5,0.7,1,0.9,1.6c0.2,0.6,0.3,1.2,0.3,1.9
			c0,0.7-0.1,1.4-0.3,2c-0.2,0.6-0.5,1.1-0.9,1.6c-0.4,0.4-0.9,0.8-1.4,1c-0.5,0.2-1.1,0.4-1.7,0.4c-0.6,0-1.2-0.1-1.7-0.4
			c-0.5-0.2-1-0.6-1.4-1c-0.4-0.5-0.7-1-0.9-1.6c-0.2-0.6-0.3-1.3-0.3-2c0-0.7,0.1-1.3,0.3-1.9c0.2-0.6,0.5-1.1,0.9-1.6
			c0.4-0.4,0.8-0.8,1.4-1C135.5,32,136.1,31.9,136.7,31.9z M136.7,33.8c-0.6,0-1.2,0.3-1.6,0.9c-0.4,0.6-0.6,1.3-0.6,2.2
			c0,0.9,0.2,1.6,0.6,2.2c0.4,0.6,0.9,0.9,1.6,0.9c0.6,0,1.2-0.3,1.6-0.9c0.4-0.6,0.6-1.3,0.6-2.2c0-0.9-0.2-1.6-0.6-2.2
			C137.9,34.1,137.4,33.8,136.7,33.8z M145.7,45.8h-2.2V31.9h2.2V45.8z"/>
		<path class="st0" d="M158.9,43v-9.1h-10.3v-1.9h10.8c0.5,0,0.9,0.2,1.2,0.5c0.3,0.3,0.5,0.7,0.5,1.2V43h0.7v1.9h-13.8V43H158.9z"
			/>
		<path class="st0" d="M171.2,38.2h-5.8v2.9h6.6V43h-7.3c-0.4,0-0.8-0.2-1.1-0.5c-0.3-0.3-0.4-0.8-0.4-1.3v-4.9h5.8v-2.4h-5.8v-1.9
			h6.4c0.4,0,0.8,0.2,1.1,0.5s0.4,0.8,0.4,1.3V38.2z M177.8,38.9h-2.3v7h-2.1V31.9h2.1v5h2.3V38.9z"/>
		<path class="st0" d="M192.2,37.9v1.9h-5.8v2.4h-2.1v-2.4h-5.8v-1.9h3.6c-0.4-0.3-0.6-0.7-0.8-1.1s-0.3-0.9-0.3-1.5
			c0-0.6,0.1-1.1,0.3-1.6c0.2-0.5,0.5-0.9,0.9-1.3c0.4-0.4,0.9-0.7,1.4-0.9c0.5-0.2,1.1-0.3,1.8-0.3c0.6,0,1.2,0.1,1.8,0.3
			c0.5,0.2,1,0.5,1.4,0.9c0.4,0.4,0.7,0.8,0.9,1.3c0.2,0.5,0.3,1,0.3,1.6c0,0.5-0.1,1-0.3,1.5c-0.2,0.4-0.5,0.8-0.8,1.1H192.2z
			 M179.2,44.1V41h2.2v2.9h10.2v1.9h-10.7c-0.5,0-0.9-0.2-1.2-0.5C179.3,45,179.2,44.6,179.2,44.1z M185.3,33.1
			c-0.7,0-1.2,0.2-1.7,0.6s-0.6,0.9-0.6,1.6c0,0.6,0.2,1.2,0.6,1.6c0.4,0.4,1,0.6,1.7,0.6c0.7,0,1.2-0.2,1.6-0.6
			c0.4-0.4,0.6-0.9,0.6-1.6c0-0.6-0.2-1.1-0.6-1.6S186,33.1,185.3,33.1z"/>
		<path class="st0" d="M193.4,45.3v-1.9h14.2v1.9H193.4z M194.4,33.7c0-0.5,0.1-0.9,0.4-1.3c0.3-0.3,0.7-0.5,1.1-0.5h10.8v1.9h-10.2
			v4.6h10.2v1.9h-10.8c-0.4,0-0.8-0.2-1.1-0.5c-0.3-0.3-0.4-0.8-0.4-1.3V33.7z"/>
	</g>
</g>
</svg>
