<?xml version="1.0" encoding="utf-8"?>
<!-- Generator: Adobe Illustrator 25.0.1, SVG Export Plug-In . SVG Version: 6.00 Build 0)  -->
<svg version="1.1" id="Layer_1" xmlns="http://www.w3.org/2000/svg" xmlns:xlink="http://www.w3.org/1999/xlink" x="0px" y="0px"
	 viewBox="0 0 270 190" style="enable-background:new 0 0 270 190;" xml:space="preserve">
<style type="text/css">
	.st0{fill:#C7CDEA;}
	.st1{clip-path:url(#SVGID_2_);}
	.st2{fill:#E9EFFF;}
	.st3{fill:#807DFB;}
	.st4{fill:#FFFFFF;}
	.st5{fill:#E9EDF7;}
	.st6{fill:#9F9CFF;}
	.st7{fill:#6B67E9;}
	.st8{fill:#CED3F8;}
	.st9{fill:#2689D3;}
	.st10{fill:#1F196F;}
	.st11{fill:#362E93;}
	.st12{fill:#20196F;}
	.st13{fill:#F0CCC0;}
	.st14{fill:#423EAF;}
	.st15{fill:#43A2F7;}
	.st16{fill:#F7D3C9;}
	.st17{fill:#362E94;}
	.st18{fill:#80C5F9;}
</style>
<path class="st0" d="M240,190H5c-2.8,0-5-2.2-5-5V30C0,13.4,13.4,0,30,0h235c2.8,0,5,2.2,5,5v155C270,176.6,256.6,190,240,190z"/>
<g>
	<defs>
		<path id="SVGID_1_" d="M240,190H5c-2.8,0-5-2.2-5-5V30C0,13.4,13.4,0,30,0h235c2.8,0,5,2.2,5,5v155C270,176.6,256.6,190,240,190z"
			/>
	</defs>
	<clipPath id="SVGID_2_">
		<use xlink:href="#SVGID_1_"  style="overflow:visible;"/>
	</clipPath>
	<g class="st1">
		<path class="st2" d="M53.7,281c0-3.4,22.8-6.2,51-6.2c28.1,0,51,2.8,51,6.2c0,3.4-22.8,6.2-51,6.2C76.5,287.2,53.7,284.4,53.7,281
			z"/>
		<g>
			<path class="st3" d="M201.7,53.4c-0.3,0-0.6,0.3-0.7,0.6c0,0.4-0.1,0.8-0.1,1.2c0,0.4,0,0.8,0.1,1.2c0,0.3,0.3,0.6,0.7,0.6h1
				c0.3,0,0.6,0.2,0.7,0.5c0.1,0.3,0.2,0.7,0.3,1c0.1,0.3,0,0.6-0.3,0.8l-0.9,0.5c-0.3,0.2-0.4,0.6-0.3,0.9c0.3,0.7,0.7,1.4,1.2,2.1
				c0.2,0.3,0.6,0.4,0.9,0.2l0.9-0.5c0.3-0.2,0.6-0.1,0.8,0.1c0.2,0.3,0.5,0.5,0.8,0.8c0.2,0.2,0.3,0.6,0.1,0.8l-0.5,0.9
				c-0.2,0.3-0.1,0.7,0.2,0.9c0.7,0.5,1.4,0.9,2.1,1.2c0.3,0.1,0.7,0,0.9-0.3l0.5-0.9c0.2-0.3,0.5-0.4,0.8-0.3
				c0.3,0.1,0.7,0.2,1,0.3c0.3,0.1,0.5,0.3,0.5,0.7v1c0,0.3,0.3,0.6,0.6,0.7c0.4,0,0.8,0.1,1.2,0.1c0.4,0,0.8,0,1.2-0.1
				c0.3,0,0.6-0.3,0.6-0.7v-1c0-0.3,0.2-0.6,0.5-0.7c0.3-0.1,0.7-0.2,1-0.3c0.3-0.1,0.6,0,0.8,0.3L219,67c0.2,0.3,0.6,0.4,0.9,0.3
				c0.7-0.3,1.4-0.7,2.1-1.2c0.3-0.2,0.4-0.6,0.2-0.9l-0.5-0.9c-0.2-0.3-0.1-0.6,0.1-0.8c0.3-0.2,0.5-0.5,0.8-0.8
				c0.2-0.2,0.6-0.3,0.8-0.1l0.9,0.5c0.3,0.2,0.7,0.1,0.9-0.2c0.5-0.7,0.9-1.4,1.2-2.1c0.1-0.3,0-0.7-0.3-0.9l-0.9-0.5
				c-0.3-0.2-0.4-0.5-0.3-0.8c0.1-0.3,0.2-0.7,0.3-1c0.1-0.3,0.3-0.5,0.7-0.5h1c0.3,0,0.6-0.3,0.7-0.6c0-0.4,0.1-0.8,0.1-1.2
				c0-0.4,0-0.8-0.1-1.2c0-0.3-0.3-0.6-0.7-0.6h-1c-0.3,0-0.6-0.2-0.7-0.5c-0.1-0.3-0.2-0.7-0.3-1c-0.1-0.3,0-0.6,0.3-0.8l0.9-0.5
				c0.3-0.2,0.4-0.6,0.3-0.9c-0.3-0.7-0.7-1.4-1.2-2.1c-0.2-0.3-0.6-0.4-0.9-0.2l-0.9,0.5c-0.3,0.2-0.6,0.1-0.8-0.1
				c-0.2-0.3-0.5-0.5-0.8-0.8c-0.2-0.2-0.3-0.6-0.1-0.8l0.5-0.9c0.2-0.3,0.1-0.7-0.2-0.9c-0.7-0.5-1.4-0.9-2.1-1.2
				c-0.3-0.1-0.7,0-0.9,0.3l-0.5,0.9c-0.2,0.3-0.5,0.4-0.8,0.3c-0.3-0.1-0.7-0.2-1-0.3c-0.3-0.1-0.5-0.3-0.5-0.7v-1
				c0-0.3-0.3-0.6-0.6-0.7c-0.4,0-0.8-0.1-1.2-0.1c-0.4,0-0.8,0-1.2,0.1c-0.3,0-0.6,0.3-0.6,0.7v1c0,0.3-0.2,0.6-0.5,0.7
				c-0.3,0.1-0.7,0.2-1,0.3c-0.3,0.1-0.6,0-0.8-0.3l-0.5-0.9c-0.2-0.3-0.6-0.4-0.9-0.3c-0.7,0.3-1.4,0.7-2.1,1.2
				c-0.3,0.2-0.4,0.6-0.2,0.9l0.5,0.9c0.2,0.3,0.1,0.6-0.1,0.8c-0.3,0.2-0.5,0.5-0.8,0.8c-0.2,0.2-0.6,0.3-0.8,0.1l-0.9-0.5
				c-0.3-0.2-0.7-0.1-0.9,0.2c-0.5,0.7-0.9,1.4-1.2,2.1c-0.1,0.3,0,0.7,0.3,0.9l0.9,0.5c0.3,0.2,0.4,0.5,0.3,0.8
				c-0.1,0.3-0.2,0.7-0.3,1c-0.1,0.3-0.3,0.5-0.7,0.5H201.7z M214.3,48.7c3.6,0,6.5,2.9,6.5,6.5c0,3.6-2.9,6.5-6.5,6.5
				c-3.6,0-6.5-2.9-6.5-6.5C207.8,51.6,210.7,48.7,214.3,48.7z"/>
			
				<ellipse transform="matrix(0.2298 -0.9732 0.9732 0.2298 111.3036 251.0873)" class="st3" cx="214.3" cy="55.2" rx="2.7" ry="2.7"/>
		</g>
		<path class="st4" d="M36.1,110.9c-4.8,0-11.7-1.5-9.7-9.3c1.5-6,8.6-5.9,12.7-3.4c-6.3-5.8,4.4-22.4,17.7-9c0-7.5,10.8-23.5,23-16
			c9.9,6.1,6.4,15.8,2,20.6c5.7-3.1,14.6-3,17.5,4.2c2.9,7.3-1.5,12.9-8.3,12.9C84.1,110.9,36.1,110.9,36.1,110.9z"/>
		<path class="st5" d="M55.9,33.6V141c0,4.7,3.8,8.5,8.5,8.5h139.7c4.7,0,8.5-3.8,8.5-8.5V33.6H55.9z"/>
		<g>
			<path class="st3" d="M212.7,30.7c0-4.7-3.8-8.5-8.5-8.5H64.4c-4.7,0-8.5,3.8-8.5,8.5v2.9h156.8V30.7z"/>
			<path class="st4" d="M82.1,28.3c0-1.3,1-2.3,2.3-2.3c1.3,0,2.3,1,2.3,2.3c0,1.3-1,2.3-2.3,2.3C83.2,30.6,82.1,29.6,82.1,28.3z"/>
			<path class="st4" d="M73.6,30.9c-0.5,0-0.7-0.3-0.4-0.7l2.4-4.1c0.2-0.4,0.6-0.4,0.8,0l2.4,4.1c0.2,0.4,0,0.7-0.4,0.7H73.6z"/>
			<path class="st4" d="M64.7,26.7c0-0.4,0.3-0.7,0.7-0.7h3.2c0.4,0,0.7,0.3,0.7,0.7v3.2c0,0.4-0.3,0.7-0.7,0.7h-3.2
				c-0.4,0-0.7-0.3-0.7-0.7V26.7z"/>
		</g>
		<g>
			<path class="st6" d="M190.3,29.5c0,0.9-0.8,1.7-1.7,1.7H95.2c-0.9,0-1.7-0.8-1.7-1.7v-3.3c0-0.9,0.8-1.7,1.7-1.7h93.4
				c0.9,0,1.7,0.8,1.7,1.7V29.5z"/>
		</g>
		<rect x="63.1" y="40.8" class="st4" width="110.5" height="13.9"/>
		<rect x="173.6" y="40.8" class="st7" width="16.4" height="13.9"/>
		<g>
			<path class="st8" d="M67.1,49.9c0-0.4,0.4-0.8,0.8-0.8c0.4,0,0.8,0.4,0.8,0.8c0,0.4-0.4,0.8-0.8,0.8
				C67.4,50.7,67.1,50.3,67.1,49.9z"/>
			<path class="st8" d="M71.5,49.9c0-0.4,0.4-0.8,0.8-0.8c0.4,0,0.8,0.4,0.8,0.8c0,0.4-0.4,0.8-0.8,0.8
				C71.8,50.7,71.5,50.3,71.5,49.9z"/>
			<path class="st8" d="M75.9,49.9c0-0.4,0.4-0.8,0.8-0.8c0.4,0,0.8,0.4,0.8,0.8c0,0.4-0.4,0.8-0.8,0.8
				C76.2,50.7,75.9,50.3,75.9,49.9z"/>
			<path class="st8" d="M80.3,49.9c0-0.4,0.4-0.8,0.8-0.8c0.4,0,0.8,0.4,0.8,0.8c0,0.4-0.4,0.8-0.8,0.8
				C80.7,50.7,80.3,50.3,80.3,49.9z"/>
			<path class="st8" d="M84.7,49.9c0-0.4,0.4-0.8,0.8-0.8c0.4,0,0.8,0.4,0.8,0.8c0,0.4-0.4,0.8-0.8,0.8
				C85.1,50.7,84.7,50.3,84.7,49.9z"/>
			<path class="st8" d="M89.1,49.9c0-0.4,0.4-0.8,0.8-0.8s0.8,0.4,0.8,0.8c0,0.4-0.4,0.8-0.8,0.8S89.1,50.3,89.1,49.9z"/>
			<path class="st8" d="M93.6,49.9c0-0.4,0.4-0.8,0.8-0.8c0.4,0,0.8,0.4,0.8,0.8c0,0.4-0.4,0.8-0.8,0.8
				C93.9,50.7,93.6,50.3,93.6,49.9z"/>
			<path class="st8" d="M98,49.9c0-0.4,0.4-0.8,0.8-0.8c0.4,0,0.8,0.4,0.8,0.8c0,0.4-0.4,0.8-0.8,0.8C98.3,50.7,98,50.3,98,49.9z"/>
			<path class="st8" d="M102.4,49.9c0-0.4,0.4-0.8,0.8-0.8c0.4,0,0.8,0.4,0.8,0.8c0,0.4-0.4,0.8-0.8,0.8
				C102.7,50.7,102.4,50.3,102.4,49.9z"/>
			<path class="st8" d="M106.8,49.9c0-0.4,0.4-0.8,0.8-0.8c0.4,0,0.8,0.4,0.8,0.8c0,0.4-0.4,0.8-0.8,0.8
				C107.2,50.7,106.8,50.3,106.8,49.9z"/>
			<path class="st8" d="M111.2,49.9c0-0.4,0.4-0.8,0.8-0.8c0.4,0,0.8,0.4,0.8,0.8c0,0.4-0.4,0.8-0.8,0.8
				C111.6,50.7,111.2,50.3,111.2,49.9z"/>
			<path class="st8" d="M115.6,49.9c0-0.4,0.4-0.8,0.8-0.8c0.4,0,0.8,0.4,0.8,0.8c0,0.4-0.4,0.8-0.8,0.8
				C116,50.7,115.6,50.3,115.6,49.9z"/>
			<path class="st8" d="M120.1,49.9c0-0.4,0.4-0.8,0.8-0.8c0.4,0,0.8,0.4,0.8,0.8c0,0.4-0.4,0.8-0.8,0.8
				C120.4,50.7,120.1,50.3,120.1,49.9z"/>
			<path class="st8" d="M124.5,49.9c0-0.4,0.4-0.8,0.8-0.8c0.4,0,0.8,0.4,0.8,0.8c0,0.4-0.4,0.8-0.8,0.8
				C124.8,50.7,124.5,50.3,124.5,49.9z"/>
			<path class="st8" d="M128.9,49.9c0-0.4,0.4-0.8,0.8-0.8c0.4,0,0.8,0.4,0.8,0.8c0,0.4-0.4,0.8-0.8,0.8
				C129.3,50.7,128.9,50.3,128.9,49.9z"/>
			<path class="st8" d="M133.3,49.9c0-0.4,0.4-0.8,0.8-0.8c0.4,0,0.8,0.4,0.8,0.8c0,0.4-0.4,0.8-0.8,0.8
				C133.7,50.7,133.3,50.3,133.3,49.9z"/>
			<path class="st8" d="M137.7,49.9c0-0.4,0.4-0.8,0.8-0.8c0.4,0,0.8,0.4,0.8,0.8c0,0.4-0.4,0.8-0.8,0.8
				C138.1,50.7,137.7,50.3,137.7,49.9z"/>
		</g>
		<rect x="173.6" y="85.3" class="st9" width="28.9" height="38.2"/>
		<g>
			<g>
				<rect x="165.5" y="59.7" class="st5" width="37.1" height="1.8"/>
			</g>
			<g>
				<rect x="74" y="59.7" class="st5" width="83.4" height="1.8"/>
			</g>
			<g>
				<rect x="110.2" y="64.5" class="st5" width="92.3" height="1.8"/>
			</g>
			<g>
				<rect x="63.1" y="64.5" class="st5" width="34.2" height="1.8"/>
			</g>
			<g>
				<rect x="138.7" y="69.4" class="st5" width="63.9" height="1.8"/>
			</g>
			<g>
				<rect x="63.1" y="69.4" class="st5" width="68.9" height="1.8"/>
			</g>
			<g>
				<rect x="63.1" y="74.2" class="st5" width="139.5" height="1.8"/>
			</g>
			<g>
				<rect x="63.1" y="79" class="st5" width="139.5" height="1.8"/>
			</g>
			<g>
				<rect x="134.8" y="88.7" class="st5" width="30.9" height="1.8"/>
			</g>
			<g>
				<rect x="74" y="88.7" class="st5" width="47.4" height="1.8"/>
			</g>
			<g>
				<rect x="63.1" y="93.6" class="st5" width="102.6" height="1.8"/>
			</g>
			<g>
				<rect x="63.1" y="98.4" class="st5" width="102.6" height="1.8"/>
			</g>
			<g>
				<rect x="63.1" y="103.2" class="st5" width="102.6" height="1.8"/>
			</g>
			<g>
				<rect x="149.5" y="108.1" class="st5" width="16.2" height="1.8"/>
			</g>
			<g>
				<rect x="63.1" y="108.1" class="st5" width="81.3" height="1.8"/>
			</g>
			<g>
				<rect x="128" y="112.9" class="st5" width="37.8" height="1.8"/>
			</g>
			<g>
				<rect x="63.1" y="112.9" class="st5" width="56.1" height="1.8"/>
			</g>
			<g>
				<rect x="63.1" y="117.7" class="st5" width="93.9" height="1.8"/>
			</g>
			<g>
				<rect x="63.1" y="122.6" class="st5" width="102.6" height="1.8"/>
			</g>
			<g>
				<rect x="135" y="127.4" class="st5" width="30.7" height="1.8"/>
			</g>
			<g>
				<rect x="63.1" y="127.4" class="st5" width="64.5" height="1.8"/>
			</g>
			<g>
				<rect x="63.1" y="132.2" class="st5" width="102.6" height="1.8"/>
			</g>
			<g>
				<rect x="63.1" y="137.1" class="st5" width="102.6" height="1.8"/>
			</g>
		</g>
		<g>
			<g>
				
					<rect x="118.9" y="69.5" transform="matrix(-1.732738e-04 1 -1 -1.732738e-04 191.1376 -49.1557)" class="st10" width="2.5" height="2.9"/>
				<path class="st11" d="M122.9,90.7V72.2l-2.8,0v21.3C121.7,93.5,122.9,92.3,122.9,90.7z"/>
				<path class="st10" d="M117.4,72.2l0,18.5c0,1.5,1.2,2.8,2.8,2.8V72.2L117.4,72.2z"/>
			</g>
			<path class="st11" d="M132.2,41.1c-6.7-6.7-17.5-6.7-24.1,0c-6.7,6.7-6.7,17.5,0,24.1c6.7,6.7,17.5,6.7,24.1,0
				C138.9,58.6,138.9,47.8,132.2,41.1z M120.2,68.7c-8.6,0-15.6-6.9-15.6-15.4c0-8.6,6.9-15.6,15.4-15.6c8.6,0,15.6,6.9,15.6,15.4
				C135.7,61.7,128.8,68.7,120.2,68.7z"/>
			<path class="st5" d="M129.9,41.1c2.2,2.7,3.6,6.1,3.6,9.8c0,8.6-6.9,15.6-15.4,15.6c-3.7,0-7.2-1.3-9.9-3.5
				c2.9,3.4,7.2,5.6,12,5.6c8.6,0,15.5-7,15.4-15.6C135.6,48.3,133.4,44,129.9,41.1z"/>
		</g>
		<path class="st9" d="M80.6,151.6c-2.3-2.7-4.9-7.5-4.9-9.2c0.7-2.1,4.9-4.3,6.9-10c3.1-8.7,3-24.5,3-24.5
			c-6.2,3.2-15.3,15.2-20.4,33.2c-1.1,3.8,6.1,13,14.4,22.2C79.8,161.2,80.3,154.7,80.6,151.6z"/>
		<g>
			<path class="st12" d="M79.7,166.2c0.3,27.7,5.1,32.1,6.8,58.9c1.4,21.9-6.2,38.6-7.1,45.9c2,0,5,0,5,0
				c3.7-9.8,27.3-45.6,20.3-104.8C96.2,166.2,79.7,166.2,79.7,166.2z"/>
			<path class="st13" d="M78.2,272.9c0.5-0.6,1.2-1.8,1.2-1.8h5c-0.5,1.4-0.8,2.6-0.6,3.3C82.5,274.9,80.6,273.6,78.2,272.9z"/>
			<path class="st12" d="M78.2,272.9c2.4,0.7,4.3,2,5.6,1.5c0.7,0.5,10.9,4.2,11.9,4.9c1.1,0.7,0.9,1.9-0.2,1.9
				c-1.6,0-15.2-0.6-15.2-0.6c-0.3,0.3-0.5,0.6-0.5,0.6h-3.1C75.8,279.5,76.1,274.7,78.2,272.9z"/>
		</g>
		<g>
			<path class="st14" d="M79.7,166.2c0,25.2,16.5,26.3,27.5,50.8c7.6,16.8,9.1,49.6,9.4,54c2,0,5,0,5,0c2.7-12,10.7-57.6-5-104.8
				C108.1,166.2,79.7,166.2,79.7,166.2z"/>
			<path class="st13" d="M116.7,272.9c0-0.8,0-1.8,0-1.8h5c-0.2,1.4,0.4,2.6,0.6,3.3C121,274.9,119.1,273.6,116.7,272.9z"/>
			<path class="st12" d="M116.7,272.9c2.4,0.7,4.3,2,5.6,1.5c0.7,0.5,10.9,4.2,11.9,4.9c1.1,0.7,0.9,1.9-0.2,1.9
				c-1.6,0-15.2-0.6-15.2-0.6c-0.3,0.3-0.5,0.6-0.5,0.6h-3.1C114.3,279.5,114.5,274.7,116.7,272.9z"/>
		</g>
		<path class="st15" d="M91.3,104.6c-7.2,2.6-8.8,5.8-10.7,19.1c-1.9,13.3-0.9,42.5-0.9,42.5c2.2,0,37,0,37,0
			c1.3-8,0.3-32.8-2.4-45.2c-1.4-6.7-1.8-15.9-9.4-16.5C99.5,104,91.3,104.6,91.3,104.6z"/>
		<g>
			<path class="st16" d="M101.3,82.5c1,2.9,5,11.4,3.8,15c-0.9,2.9-3.8,4-9,3.4c-5.2-0.6-7.1-9.3-8.3-11.7
				C86.1,85.3,99.2,76.3,101.3,82.5z"/>
			<path class="st16" d="M100.8,100.4c0.3,1.6,1,3.9,1,3.9c-0.7,0.9-10.7,2.1-9.7,0.4c0.3-2.9,0.1-9.6,0.1-9.6L100.8,100.4z"/>
			<path class="st17" d="M87.9,81.9c4.5-3.3,10-9.4,10.9-8.9c0.2,0.1-0.1,0.5,0.1,0.6c0.3,0.2,1.9-3.8,4.2-2.8
				c2.3,1,2.4,7.8-1.7,11.7c-4.1,3.9,0.9,6.1-0.8,8.2c-1.8,2.1-0.4,7.9-3.9,8.7c-3.5,0.8-5.1,3.4-5.5,1.1c-0.3-2.2-3.3-6.2-3.8-10
				C86.7,86.7,85.4,83.7,87.9,81.9z"/>
			<path class="st16" d="M99.1,89.7c-0.2-0.9,0.1-1.7,0.6-1.9c0.6-0.1,1.2,0.5,1.4,1.3c0.2,0.9-0.1,1.7-0.6,1.9
				C100,91.2,99.3,90.6,99.1,89.7z"/>
		</g>
		<g>
			<path class="st16" d="M119.4,87.7c-1.7-0.7-3-2.4-2.7-5.4c0.3-2.9-1.1-5.3,0.7-4.8c1.8,0.4,5.1-1,5.6-1.5c2,0,1.9,5.1,1.3,6.5
				C123.7,83.9,119.4,87.7,119.4,87.7z"/>
			<path class="st15" d="M104.4,104.4c10,1,26.7-1.2,26.7-4.5c-2.1-2.1-11.9-12-11.9-12c2.3-3.1,4.2-5.6,4.2-5.6
				c10.9,7.5,26.7,16.8,22.4,23.1c-5.8,8.6-34.6,18-34.6,18L104.4,104.4z"/>
		</g>
		<path class="st14" d="M236.6,121.5c0-2.3-1.9-4.3-4.3-4.3h-41.2c-2.3,0-4.3,1.9-4.3,4.3v1.1h49.8V121.5z"/>
		<path class="st4" d="M186.8,122.6v31.9c0,2.3,1.9,4.3,4.3,4.3h41.2c2.3,0,4.3-1.9,4.3-4.3v-31.9H186.8z"/>
		<g>
			<g>
				<path class="st3" d="M207.9,149.5c-0.1,0-0.2,0-0.3-0.1c-0.3-0.2-0.5-0.6-0.3-0.9l8.2-16.5c0.2-0.3,0.6-0.5,0.9-0.3
					c0.3,0.2,0.5,0.6,0.3,0.9l-8.2,16.5C208.4,149.4,208.2,149.5,207.9,149.5z"/>
			</g>
			<g>
				<path class="st3" d="M205.8,146.7c-0.1,0-0.3,0-0.4-0.1l-7.6-5.3c-0.2-0.1-0.3-0.3-0.3-0.6s0.1-0.4,0.3-0.6l7.6-5.3
					c0.3-0.2,0.7-0.1,1,0.2c0.2,0.3,0.1,0.7-0.2,1l-6.8,4.7l6.8,4.7c0.3,0.2,0.4,0.6,0.2,1C206.2,146.6,206,146.7,205.8,146.7z"/>
			</g>
			<g>
				<path class="st3" d="M218.6,146.7c-0.2,0-0.4-0.1-0.6-0.3c-0.2-0.3-0.1-0.7,0.2-1l6.8-4.7l-6.8-4.7c-0.3-0.2-0.4-0.6-0.2-1
					c0.2-0.3,0.6-0.4,1-0.2l7.6,5.3c0.2,0.1,0.3,0.3,0.3,0.6s-0.1,0.4-0.3,0.6l-7.6,5.3C218.9,146.6,218.8,146.7,218.6,146.7z"/>
			</g>
		</g>
		<path class="st3" d="M239.7,92.9l-5.2,1.1c-0.4,0.1-0.7,0.4-0.9,0.8l-1.7,5c-0.1,0.4,0,0.8,0.2,1.1l3.5,4c0.3,0.3,0.7,0.4,1.1,0.4
			l5.2-1.1c0.4-0.1,0.7-0.4,0.9-0.8l1.7-5c0.1-0.4,0-0.8-0.2-1.1l-3.5-4C240.5,93,240.1,92.8,239.7,92.9z"/>
		<path class="st18" d="M230.3,78.1l2.2,7.9c0.2,0.9,1.3,1.1,1.9,0.5l5.7-5.9c0.6-0.6,0.3-1.7-0.5-1.9l-8-2
			C230.9,76.5,230.1,77.2,230.3,78.1z"/>
		<path class="st15" d="M32,61.9l-5.6,6c-0.6,0.6-0.3,1.7,0.6,1.9l8,1.9c0.9,0.2,1.6-0.6,1.4-1.5l-2.4-7.9
			C33.7,61.5,32.6,61.2,32,61.9z"/>
	</g>
</g>
</svg>
