<?xml version="1.0" encoding="utf-8"?>
<!-- Generator: Adobe Illustrator 25.0.1, SVG Export Plug-In . SVG Version: 6.00 Build 0)  -->
<svg version="1.1" id="Layer_1" xmlns="http://www.w3.org/2000/svg" xmlns:xlink="http://www.w3.org/1999/xlink" x="0px" y="0px"
	 viewBox="0 0 25 25" style="enable-background:new 0 0 25 25;" xml:space="preserve">
<style type="text/css">
	.st0{fill:none;stroke:#768193;stroke-width:1.3;stroke-linecap:round;stroke-linejoin:round;stroke-miterlimit:10;}
</style>
<g>
	<path class="st0" d="M9.1,12.1h-14c-1,0-1.7-0.7-1.7-1.7l0,0c0-1,0.7-1.7,1.7-1.7h14c1,0,1.7,0.7,1.7,1.7l0,0
		C10.8,11.4,10,12.1,9.1,12.1z"/>
	<line class="st0" x1="4.1" y1="9.2" x2="4.1" y2="12.1"/>
	<path class="st0" d="M22,12.1l-7.2,0.1c-0.7,0-1.4-0.6-1.4-1.4v-2"/>
	<g>
		<g>
			<path class="st0" d="M-1.1,15.8c0,0.9-0.7,1.6-1.6,1.6s-1.6-0.9-1.6-1.6"/>
			<path class="st0" d="M3.7,15.8c0,0.9-0.7,1.6-1.6,1.6s-1.6-0.9-1.6-1.6"/>
		</g>
		<g>
			<path class="st0" d="M14.3,15.8c0,0.9-0.7,1.6-1.6,1.6c-0.9,0-1.6-0.7-1.6-1.6"/>
			<path class="st0" d="M19.1,15.8c0,0.9-0.7,1.6-1.6,1.6c-0.9,0-1.6-0.7-1.6-1.6"/>
		</g>
	</g>
	<line class="st0" x1="-7.3" y1="19.3" x2="22.6" y2="19.3"/>
	<path class="st0" d="M-7.3,5.3h18.2c4.9,0,9.4,2.8,11.6,7.2l0,0c0.6,1.2-0.2,2.6-1.6,2.6c-10.1,0-28.1,0-28.1,0"/>
</g>
</svg>
