<?xml version="1.0" encoding="utf-8"?>
<!-- Generator: Adobe Illustrator 25.0.1, SVG Export Plug-In . SVG Version: 6.00 Build 0)  -->
<svg version="1.1" id="Layer_1" xmlns="http://www.w3.org/2000/svg" xmlns:xlink="http://www.w3.org/1999/xlink" x="0px" y="0px"
	 viewBox="0 0 25 25" style="enable-background:new 0 0 25 25;" xml:space="preserve">
<style type="text/css">
	.st0{fill:none;stroke:#768193;stroke-width:1.3;stroke-linecap:round;stroke-linejoin:round;stroke-miterlimit:10;}
</style>
<g>
	<g>
		<ellipse class="st0" cx="8.9" cy="7.8" rx="6.2" ry="2.1"/>
		<path class="st0" d="M15.1,10.3c0,1.1-2.7,2-6.1,2s-6.3-0.9-6.3-2.1"/>
		<path class="st0" d="M15.2,12.9C15.2,14,12.4,15,9,15s-6.3-1-6.3-2.1"/>
		<path class="st0" d="M2.7,7.8v7.7c0,1.1,2.8,2.1,6.2,2.1s6.2-0.9,6.2-2.1V7.8"/>
	</g>
	<g>
		<line class="st0" x1="19.5" y1="5" x2="22.3" y2="5"/>
		<line class="st0" x1="19.5" y1="6.7" x2="22.3" y2="6.7"/>
	</g>
	<polyline class="st0" points="16.1,9.2 17.4,9.2 18.5,7.8 	"/>
	<polyline class="st0" points="16.1,15.9 17.4,15.9 18.5,17.2 	"/>
	<line class="st0" x1="16.1" y1="12.6" x2="18" y2="12.6"/>
	<g>
		<line class="st0" x1="19.5" y1="18.5" x2="22.3" y2="18.5"/>
		<line class="st0" x1="19.5" y1="20.2" x2="22.3" y2="20.2"/>
	</g>
	<g>
		<line class="st0" x1="19.5" y1="11.6" x2="22.3" y2="11.6"/>
		<line class="st0" x1="19.5" y1="13.4" x2="22.3" y2="13.4"/>
	</g>
</g>
</svg>
