<?xml version="1.0" encoding="utf-8"?>
<!-- Generator: Adobe Illustrator 25.0.1, SVG Export Plug-In . SVG Version: 6.00 Build 0)  -->
<svg version="1.1" id="Layer_1" xmlns="http://www.w3.org/2000/svg" xmlns:xlink="http://www.w3.org/1999/xlink" x="0px" y="0px"
	 viewBox="0 0 25 25" style="enable-background:new 0 0 25 25;" xml:space="preserve">
<style type="text/css">
	.st0{fill:#FFFFFF;}
	.st1{fill:none;stroke:#FFFFFF;stroke-width:1.3;stroke-linecap:round;stroke-linejoin:round;stroke-miterlimit:10;}
</style>
<g>
	<g>
		<path class="st0" d="M16.7,11.1v2.6c-1.2,1.1-2.7,1.7-4.2,1.7c-1.6,0-3.1-0.6-4.2-1.7v-2.6H16.7 M17.1,9.8H7.9
			C7.4,9.8,7,10.2,7,10.7v3.1c0,0.2,0.1,0.5,0.3,0.7c1.5,1.5,3.4,2.2,5.3,2.2s3.8-0.7,5.3-2.2c0.2-0.2,0.3-0.4,0.3-0.7v-3.1
			C18,10.2,17.6,9.8,17.1,9.8L17.1,9.8z"/>
	</g>
	<path class="st1" d="M8.8,17.9c0,0.2-0.2,0.4-0.4,0.4c-0.2,0-0.4-0.2-0.4-0.4c0-0.2,0.2-0.4,0.4-0.4C8.6,17.6,8.8,17.7,8.8,17.9z"
		/>
	<path class="st1" d="M16.9,17.9c0,0.2-0.2,0.4-0.4,0.4c-0.2,0-0.4-0.2-0.4-0.4c0-0.2,0.2-0.4,0.4-0.4
		C16.8,17.6,16.9,17.7,16.9,17.9z"/>
	<line class="st1" x1="9.9" y1="7.2" x2="15.1" y2="7.2"/>
	<g>
		<path class="st1" d="M19.9,16.9L19.9,16.9c0,2.7-2.2,4.8-4.8,4.8H9.9c-2.7,0-4.8-2.2-4.8-4.8l0,0v-6.3c0-4.1,3.3-7.4,7.4-7.4h0
			c4.1,0,7.4,3.3,7.4,7.4V16.9z"/>
	</g>
</g>
</svg>
