<?xml version="1.0" encoding="utf-8"?>
<!-- Generator: Adobe Illustrator 25.0.1, SVG Export Plug-In . SVG Version: 6.00 Build 0)  -->
<svg version="1.1" id="Layer_1" xmlns="http://www.w3.org/2000/svg" xmlns:xlink="http://www.w3.org/1999/xlink" x="0px" y="0px"
	 viewBox="0 0 25 25" style="enable-background:new 0 0 25 25;" xml:space="preserve">
<style type="text/css">
	.st0{fill:none;stroke:#768193;stroke-width:1.3;stroke-linecap:round;stroke-linejoin:round;stroke-miterlimit:10;}
</style>
<g>
	<ellipse class="st0" cx="4.3" cy="16.9" rx="1.9" ry="1.9"/>
	<path class="st0" d="M6.5,23.6c0.5-0.2,0.8-0.6,0.8-1v-0.8c0-2.3-1.4-3-2.7-3H4c-1.3,0-2.7,0.8-2.7,3v0.8c0,0.5,0.3,0.9,0.8,1
		C2.6,23.8,3.3,24,4.3,24S6.1,23.8,6.5,23.6z"/>
	<ellipse class="st0" cx="20.7" cy="16.9" rx="1.9" ry="1.9"/>
	<path class="st0" d="M18.5,23.6c-0.5-0.2-0.8-0.6-0.8-1v-0.8c0-2.3,1.4-3,2.7-3H21c1.3,0,2.7,0.8,2.7,3v0.8c0,0.5-0.3,0.9-0.8,1
		c-0.6,0.2-1.3,0.4-2.3,0.4C19.8,24,19.1,23.8,18.5,23.6z"/>
	<line class="st0" x1="12.6" y1="16.4" x2="12.6" y2="11.5"/>
	<line class="st0" x1="12.7" y1="16.6" x2="16.9" y2="18.9"/>
	<line class="st0" x1="12.4" y1="16.6" x2="8.3" y2="18.9"/>
	<ellipse class="st0" cx="12.5" cy="2.8" rx="1.9" ry="1.9"/>
	<path class="st0" d="M10.2,9.7c-0.5-0.3-0.8-0.6-0.8-1V7.9c0-2.3,1.4-3,2.7-3h0.6c1.3,0,2.7,0.8,2.7,3v0.8c0,0.5-0.3,0.9-0.8,1
		c-0.6,0.2-1.3,0.4-2.3,0.4S10.9,9.8,10.2,9.7z"/>
</g>
</svg>
