<?xml version="1.0" encoding="utf-8"?>
<!-- Generator: Adobe Illustrator 25.0.1, SVG Export Plug-In . SVG Version: 6.00 Build 0)  -->
<svg version="1.1" id="Layer_1" xmlns="http://www.w3.org/2000/svg" xmlns:xlink="http://www.w3.org/1999/xlink" x="0px" y="0px"
	 viewBox="0 0 25 25" style="enable-background:new 0 0 25 25;" xml:space="preserve">
<style type="text/css">
	.st0{fill:none;stroke:#768193;stroke-width:1.3;stroke-linecap:round;stroke-linejoin:round;stroke-miterlimit:10;}
</style>
<g>
	<path class="st0" d="M21.4,17.6l-3.1-3.9c-0.2-0.3-0.6-0.5-1-0.5h-2.8l-0.7-1.5h2.6c0.5,0,1-0.3,1-0.8c0.1-0.6-0.4-1.2-1-1.2h-2.8
		c0,0-1-0.9-1.4-1.3c-0.7-0.6-1.3-0.8-2-0.6c-0.5,0.2-1,0.5-1.2,1C9.1,9.4,9,10,9.2,10.5l1.8,4.5c0.2,0.5,0.6,0.7,1.2,0.7h4.3
		c0.2,0,0.3,0.1,0.4,0.2l2.6,3.2c0.3,0.3,0.6,0.5,1,0.5c0.3,0,0.5-0.1,0.7-0.3C21.7,18.9,21.8,18.1,21.4,17.6z"/>
	<ellipse class="st0" cx="9.5" cy="5.5" rx="2.1" ry="2.1"/>
	<path class="st0" d="M15.7,17.8c-0.2-0.2-0.4-0.3-0.6-0.3h-3.6c-0.9,0-1.7-0.5-2.1-1.4L6.6,9.3l0,0c-0.3-0.8-1.2-1.2-2-1
		C4.1,8.5,3.7,8.8,3.5,9.2c-0.2,0.4-0.2,0.9-0.1,1.3l4.2,10c0.3,0.6,0.8,1,1.5,1h8c0.3,0,0.6-0.2,0.7-0.4c0.1-0.3,0.1-0.6-0.1-0.8
		L15.7,17.8z"/>
</g>
</svg>
