<?xml version="1.0" encoding="utf-8"?>
<!-- Generator: Adobe Illustrator 25.0.1, SVG Export Plug-In . SVG Version: 6.00 Build 0)  -->
<svg version="1.1" id="Layer_1" xmlns="http://www.w3.org/2000/svg" xmlns:xlink="http://www.w3.org/1999/xlink" x="0px" y="0px"
	 viewBox="0 0 99.2 99.2" style="enable-background:new 0 0 99.2 99.2;" xml:space="preserve">
<style type="text/css">
	.st0{fill:#768193;}
</style>
<g>
	<path class="st0" d="M87,59.1c-2.8-2.8-6.6-4.4-10.6-4.4c0.1-0.7,0.1-1.5,0.1-2.2c0-11-9-20-20-20c-1,0-1.9,0.1-3,0.2
		c-4.1-7-12.1-10.9-20.2-9.8c-5.3,0.7-10,3.5-13.2,7.8s-4.6,9.6-3.8,14.9c0.1,1,0.4,2.1,0.7,3.2c-5.3,3.7-8.5,9.7-8.5,16.2
		c0,10.9,8.9,19.8,19.8,19.8h48.1h0.1c8.3,0,15-6.8,15-15C91.4,65.7,89.9,62,87,59.1z M37.2,47.4c-2.8-1.4-5.8-2.1-8.9-2.1
		c-2.1,0-4.2,0.4-6.3,1c-0.1-0.5-0.2-1-0.3-1.4c-0.5-3.9,0.4-7.7,2.8-10.8c2.3-3.1,5.8-5.1,9.6-5.7c5.4-0.8,10.7,1.6,13.9,5.9
		C42.7,36.8,38.7,41.6,37.2,47.4z M38.5,53.8L38.5,53.8L38.5,53.8L38.5,53.8z M38.3,54.5c0.1,0,0.2,0.1,0.3,0.1s0.1,0,0.2,0
		c0.1,0,0.2,0,0.3,0h0.1h0.2c0.1,0,0.2,0,0.2,0c0.1,0,0.2,0,0.4-0.1h0.1c0.1,0,0.3-0.1,0.4-0.2l0.1-0.1c0.1-0.1,0.2-0.1,0.3-0.2
		l0.1-0.1c0.1-0.1,0.2-0.2,0.2-0.2l0.1-0.1l0.1-0.1c0.1-0.1,0.1-0.2,0.2-0.2c0-0.1,0.1-0.2,0.1-0.2c0-0.1,0.1-0.1,0.1-0.2
		c0-0.1,0.1-0.2,0.1-0.3s0-0.1,0-0.2c0-0.1,0-0.2,0-0.3V52c0.4-7.8,6.7-14,14.6-14c8,0,14.5,6.5,14.5,14.5c0,1.6-0.3,3.1-0.8,4.7
		c0,0.1,0,0.1-0.1,0.3c0,0.1,0,0.2,0,0.3c0,0,0,0.1,0,0.2c0,0.1,0,0.3,0,0.4v0.1c0,0.1,0,0.3,0.1,0.3v0.1c0,0.1,0,0.1,0.1,0.2
		c0,0.1,0.1,0.2,0.1,0.3s0.1,0.1,0.2,0.2c0,0.1,0.1,0.1,0.1,0.2c0.1,0.1,0.1,0.1,0.2,0.2l0.1,0.1c0.1,0.1,0.1,0.1,0.3,0.2l0.1,0.1
		c0.1,0.1,0.3,0.1,0.4,0.2l0.2,0.1c0.1,0,0.1,0,0.2,0s0.2,0,0.2,0c0.1,0,0.1,0,0.2,0h0.1h0.1c0.2,0,0.5,0,0.7-0.1
		c0.9-0.3,1.8-0.4,2.7-0.4c5.3,0,9.5,4.3,9.5,9.5c0,5.3-4.3,9.5-9.5,9.5H28.1C20.4,79.3,14,72.9,14,65s6.4-14.3,14.3-14.3
		c3.4,0,6.6,1.2,9.2,3.3l0.1,0.1c0.1,0,0.1,0.1,0.2,0.1c0.1,0.1,0.2,0.1,0.3,0.1C38.1,54.5,38.2,54.5,38.3,54.5z M71.9,59.7
		L71.9,59.7L71.9,59.7L71.9,59.7z M71.3,59.2L71.3,59.2L71.3,59.2L71.3,59.2L71.3,59.2z"/>
	<path class="st0" d="M30.1,19.5L30.1,19.5c0.2,1.3,1.4,2.4,2.7,2.4c0.1,0,0.3,0,0.4,0c0.7-0.1,1.4-0.5,1.8-1.1
		c0.4-0.6,0.6-1.3,0.5-2l-0.3-1.9c-0.1-0.7-0.5-1.4-1.1-1.8s-1.3-0.6-2-0.5s-1.4,0.5-1.8,1.1c-0.4,0.6-0.6,1.3-0.5,2L30.1,19.5z"/>
	<path class="st0" d="M19.3,25.7c0.5,0.7,1.3,1.1,2.2,1.1c0.6,0,1.2-0.2,1.7-0.6c1.2-0.9,1.4-2.7,0.5-3.9l-1.2-1.5
		c-0.9-1.2-2.7-1.4-3.9-0.5c-1.2,0.9-1.4,2.7-0.5,3.9L19.3,25.7z"/>
	<path class="st0" d="M11.1,35.7l1.8,0.7c0.3,0.1,0.7,0.2,1,0.2c1.1,0,2.1-0.7,2.6-1.7c0.6-1.4-0.1-3-1.5-3.6l-1.8-0.7
		c-0.7-0.3-1.4-0.3-2.1,0s-1.2,0.8-1.5,1.5c-0.3,0.7-0.3,1.4,0,2.1S10.5,35.4,11.1,35.7z"/>
	<path class="st0" d="M10.5,49.2c0.1,0,0.3,0,0.4,0l1.9-0.3c1.5-0.2,2.6-1.6,2.3-3.1c-0.2-1.5-1.6-2.6-3.1-2.3l-1.9,0.3
		c-1.5,0.2-2.6,1.6-2.3,3.1C8,48.2,9.2,49.2,10.5,49.2z"/>
	<path class="st0" d="M55,30.8c0.6,0,1.2-0.2,1.7-0.6l1.5-1.2c0.6-0.5,0.9-1.1,1-1.8c0.1-0.7-0.1-1.4-0.6-2
		c-0.9-1.2-2.7-1.4-3.9-0.5l-1.5,1.2c-1.2,0.9-1.4,2.7-0.5,3.9C53.4,30.4,54.2,30.8,55,30.8z"/>
	<path class="st0" d="M44.1,23.2c0.3,0.1,0.7,0.2,1,0.2c1.1,0,2.1-0.7,2.6-1.7l0.7-1.8c0.6-1.4-0.1-3-1.5-3.6s-3,0.1-3.6,1.5
		l-0.7,1.8C42,21,42.7,22.6,44.1,23.2z"/>
</g>
</svg>
