<?xml version="1.0" encoding="utf-8"?>
<!-- Generator: Adobe Illustrator 25.0.1, SVG Export Plug-In . SVG Version: 6.00 Build 0)  -->
<svg version="1.1" id="Layer_1" xmlns="http://www.w3.org/2000/svg" xmlns:xlink="http://www.w3.org/1999/xlink" x="0px" y="0px"
	 viewBox="0 0 18 15" style="enable-background:new 0 0 18 15;" xml:space="preserve">
<style type="text/css">
	.st0{display:none;fill:#AFAFAE;}
	.st1{fill:#AFAFAE;}
</style>
<path class="st0" d="M9,13.2c-3.6,0-6.8-2.1-9-5.8c0,0,0-0.2,0-0.3c2.1-3.7,5.4-5.8,9-5.8s6.8,2.1,9,5.8c0,0.1,0,0.3,0,0.4
	C15.8,11.1,12.6,13.2,9,13.2z M9,2C5.8,2,2.8,3.9,0.8,7.2L0.7,7.3l0.1,0.1c2,3.3,5,5.2,8.2,5.2s6.2-1.9,8.2-5.2l0.1-0.1l-0.1-0.1
	C15.2,3.9,12.2,2,9,2z M9,10.7c-1.9,0-3.4-1.5-3.4-3.4S7.1,3.9,9,3.9s3.4,1.5,3.4,3.4S10.9,10.7,9,10.7z M9,4.6
	c-1.5,0-2.7,1.2-2.7,2.7S7.5,10,9,10s2.7-1.2,2.7-2.7S10.5,4.6,9,4.6z"/>
<path class="st0" d="M16.2,15H1.8c-0.2,0-0.3-0.2-0.3-0.3v-4.1c0-0.2,0.2-0.3,0.3-0.3s0.3,0.2,0.3,0.3v3.7h13.6v-3.7
	c0-0.2,0.2-0.3,0.3-0.3c0.2,0,0.3,0.2,0.3,0.3v4C16.5,14.8,16.3,15,16.2,15z M9,12.8L9,12.8c-0.1,0-0.2,0-0.3-0.1L5,8.7
	C4.9,8.6,4.9,8.3,5,8.2s0.4-0.1,0.5,0l3.1,3.3V0.4C8.6,0.2,8.8,0,9,0s0.3,0.2,0.3,0.3v11.2l3.1-3.3c0.1-0.1,0.4-0.1,0.5,0
	s0.1,0.4,0,0.5l-3.7,4C9.2,12.8,9.1,12.8,9,12.8z"/>
<path class="st1" d="M5,14.8c-0.2,0-0.5-0.1-0.7-0.2c-0.4-0.3-0.6-0.7-0.5-1.2l0.6-3.7c0-0.1,0-0.2-0.1-0.2L1.7,6.9
	C1.4,6.6,1.3,6.1,1.4,5.7c0.1-0.4,0.5-0.7,1-0.8l3.7-0.5c0.1,0,0.2-0.1,0.2-0.1l1.6-3.3C8.1,0.4,8.5,0.2,9,0.2
	c0.5,0,0.9,0.3,1.1,0.7l1.7,3.4c0,0.1,0.1,0.1,0.2,0.1l3.7,0.5c0.5,0.1,0.8,0.4,1,0.8c0.1,0.4,0,0.9-0.3,1.2l-2.7,2.6
	c0,0-0.1,0.1-0.1,0.2l0.6,3.7c0.1,0.4-0.1,0.9-0.5,1.2c-0.4,0.3-0.9,0.3-1.3,0.1L9.1,13c-0.1,0-0.1,0-0.2,0l-3.3,1.7
	C5.4,14.8,5.2,14.8,5,14.8z M9,1.1c0,0-0.2,0-0.2,0.1L7.1,4.6C6.9,5,6.6,5.2,6.2,5.3L2.5,5.8C2.4,5.8,2.4,5.9,2.3,6
	c0,0,0,0.2,0.1,0.3l2.7,2.6c0.3,0.3,0.4,0.6,0.3,1l-0.6,3.7c0,0.1,0.1,0.2,0.1,0.2c0,0,0.1,0.1,0.2,0l3.3-1.7c0.3-0.2,0.8-0.2,1.1,0
	l3.3,1.7c0.1,0.1,0.2,0,0.2,0s0.1-0.1,0.1-0.2L12.6,10c-0.1-0.3,0-0.8,0.3-1.1l2.7-2.6c0.1-0.1,0.1-0.2,0.1-0.3
	c0-0.1-0.1-0.1-0.2-0.2l-3.7-0.5c-0.4,0-0.7-0.3-0.9-0.6L9.2,1.3C9.1,1.1,9,1.1,9,1.1z"/>
</svg>
