<?xml version="1.0" encoding="utf-8"?>
<!-- Generator: Adobe Illustrator 26.0.1, SVG Export Plug-In . SVG Version: 6.00 Build 0)  -->
<svg version="1.1" id="Layer_2_00000068677670873380294290000000850914001797222299_"
	 xmlns="http://www.w3.org/2000/svg" xmlns:xlink="http://www.w3.org/1999/xlink" x="0px" y="0px" viewBox="0 0 150 150"
	 style="enable-background:new 0 0 150 150;" xml:space="preserve">
<style type="text/css">
	.st0{fill:#CBCBCB;}
	.st1{fill:#F0ECEF;}
	.st2{fill:#013177;}
	.st3{fill:#2689D3;}
	.st4{fill:none;stroke:#143EB7;stroke-width:3;stroke-linecap:round;stroke-miterlimit:10;}
	.st5{fill:#43A2F7;}
	.st6{fill:#FFFFFF;}
</style>
<g>
	<polygon class="st0" points="100,81.6 100,93.1 114.6,81.9 	"/>
	<path class="st1" d="M122.4,82.2H75.3c-6.2,0-11.2-5-11.2-11.2V23.9c0-6.1,5-11.2,11.2-11.2h47.1c6.1,0,11.2,5,11.2,11.2V71
		C133.6,77.1,128.6,82.2,122.4,82.2z"/>
	<g>
		<path class="st2" d="M114,52.7c0-1.1-0.6-2-1.5-2.4c1-0.4,1.8-1.4,1.8-2.5c0-1.2-0.7-2.2-1.8-2.5c0.9-0.5,1.5-1.4,1.5-2.4
			c0-1.5-1.2-2.7-2.7-2.7H98.9c0.6-1.6,1.5-4.4,1.8-5.9c0.4-2.8-0.9-3.7-2.2-3.9c-1.2-0.2-2.2,0.3-3.8,3.8S88.9,40,88.9,40v20.4
			h21.9c1.5,0,2.7-1.2,2.7-2.7c0-1-0.6-1.9-1.4-2.4C113.2,55,114,54,114,52.7z"/>
		<path class="st2" d="M79.7,61.6h7.1c0.3,0,0.5-0.2,0.5-0.5V38c0-0.3-0.2-0.5-0.5-0.5h-7.1c-0.3,0-0.5,0.2-0.5,0.5v23
			C79.2,61.3,79.4,61.6,79.7,61.6z M84.6,58.1c0,0.8-0.7,1.4-1.4,1.4c-0.8,0-1.4-0.7-1.4-1.4c0-0.8,0.7-1.4,1.4-1.4
			C83.9,56.7,84.6,57.3,84.6,58.1z"/>
	</g>
	<path class="st0" d="M122.4,12.7h-9.3c6.2,0,11.2,5,11.2,11.2V71c0,6.2-5,11.2-11.2,11.2h9.3c6.1,0,11.2-5,11.2-11.2V23.9
		C133.6,17.7,128.6,12.7,122.4,12.7z"/>
	<polygon class="st1" points="45.4,99.2 45.4,110.6 60,99.5 	"/>
	<path class="st1" d="M60.1,103.1H28c-6.1,0-11.2-5-11.2-11.2v-32c0-6.2,5-11.2,11.2-11.2h32.1c6.2,0,11.2,5,11.2,11.2v32.1
		C71.3,98,66.3,103.1,60.1,103.1z"/>
	<path class="st0" d="M60.3,48.8H48c6.2,0,11.2,5,11.2,11.2v43.2h1.1c6.2,0,11.2-5,11.2-11.2V60C71.5,53.8,66.4,48.8,60.3,48.8z"/>
	<polygon class="st3" points="77.9,127.3 77.9,138.8 92.5,127.7 	"/>
	<line class="st4" x1="39.6" y1="64.5" x2="35.4" y2="87.3"/>
	<line class="st4" x1="48.5" y1="64.5" x2="44.3" y2="87.3"/>
	<line class="st4" x1="30.1" y1="71.9" x2="54.1" y2="71.9"/>
	<line class="st4" x1="30.1" y1="80.6" x2="54.1" y2="80.6"/>
	<path class="st5" d="M90,132.3H64.4c-3.4,0-6.2-2.8-6.2-6.2v-25.6c0-3.4,2.8-6.2,6.2-6.2H90c3.4,0,6.2,2.8,6.2,6.2v25.6
		C96.3,129.5,93.5,132.3,90,132.3z"/>
	<path class="st3" d="M90,94.2H79.6c3.4,0,6.2,2.8,6.2,6.2v25.6c0,3.4-2.8,6.2-6.2,6.2H90c3.4,0,6.2-2.8,6.2-6.2v-25.6
		C96.3,97.1,93.5,94.2,90,94.2z"/>
	<g>
		<path class="st6" d="M85,110.6c0,0.8-0.2,1.8-0.6,2.7c-0.4,1-0.9,1.9-1.6,2.9c-0.7,1-1.6,1.9-2.6,2.9c-1,0.9-2.2,1.8-3.5,2.6
			c-1.3-0.7-2.4-1.6-3.4-2.5c-1-0.9-1.9-1.9-2.6-2.9c-0.7-1-1.3-2-1.7-3c-0.4-1-0.6-1.9-0.6-2.7c0-0.6,0.1-1.1,0.3-1.6
			c0.2-0.5,0.4-0.9,0.8-1.3c0.3-0.3,0.8-0.6,1.3-0.8c0.5-0.2,1.1-0.3,1.7-0.3c1,0,1.8,0.3,2.6,0.8c0.7,0.6,1.3,1.5,1.6,2.7
			c0.3-1.2,0.9-2.1,1.6-2.7c0.7-0.6,1.6-0.8,2.6-0.8c0.6,0,1.2,0.1,1.7,0.3c0.5,0.2,0.9,0.5,1.3,0.8c0.3,0.4,0.6,0.8,0.8,1.3
			C84.9,109.4,85,110,85,110.6z"/>
	</g>
</g>
</svg>

