<?xml version="1.0" encoding="utf-8"?>
<!-- Generator: Adobe Illustrator 26.0.1, SVG Export Plug-In . SVG Version: 6.00 Build 0)  -->
<svg version="1.1" id="Layer_2_00000090271687325599186420000014992963314608738493_"
	 xmlns="http://www.w3.org/2000/svg" xmlns:xlink="http://www.w3.org/1999/xlink" x="0px" y="0px" viewBox="0 0 150 150"
	 style="enable-background:new 0 0 150 150;" xml:space="preserve">
<style type="text/css">
	.st0{fill:#F0ECEF;}
	.st1{fill:#CBCBCB;}
	.st2{fill:#43A2F7;}
	.st3{opacity:0.35;fill:#CBCBCB;enable-background:new    ;}
	.st4{fill:#143EB7;}
</style>
<g>
	<path class="st0" d="M7.5,45.6L88,45.4c0,0,14.6-0.9,29.5,13.3S139.4,81,139.4,81s6.4,7.5,0.4,15.5c0,0-4,8.4-16,8L7.6,104.1
		L7.5,45.6z"/>
	<path class="st1" d="M7.6,104l116.4,0.6c12,0.4,16-8,16-8c2.4-3.2,2.8-6.3,2.4-8.9H89.9C84.1,87.9,79.6,82,79.6,82
		c-2.8-4-8.7-4-8.7-4L7.5,78.3"/>
	<path class="st2" d="M65.8,69.8H43.7c-1.5,0-2.7-1.2-2.7-2.7v-9.5c0-1.5,1.2-2.7,2.7-2.7h22.1c1.5,0,2.7,1.2,2.7,2.7v9.5
		C68.5,68.6,67.3,69.8,65.8,69.8z"/>
	<path class="st2" d="M7.6,69.7h22.1c1.5,0,2.7-1.2,2.7-2.7v-9.5c0-1.5-1.2-2.7-2.7-2.7H7.6V69.7z"/>
	<path class="st2" d="M117.2,58.3c-1.4-1.3-2.9-2.5-4.3-3.5H86.6c-1.5,0-2.7,1.2-2.7,2.7v7.7v0.5v0.8c0,5.7,4.6,10.3,10.3,10.3h36.1
		c0.3,0,0.5,0,0.8,0h4.4C132.1,72.9,126,66.7,117.2,58.3z"/>
	<path class="st3" d="M139.4,81.1c0,0-7.1-8.2-21.9-22.4C102.6,44.5,88,45.4,88,45.4H77.9c4.3,0.2,15.9,2,27.8,13.3
		c14.8,14.2,21.9,22.4,21.9,22.4s6.4,7.5,0.4,15.5c0,0-3.5,7.3-13.6,7.9h9.5c12,0.4,16-8,16-8C145.9,88.6,139.4,81.1,139.4,81.1z"/>
	<path class="st4" d="M50.2,98L50.2,98c-1.1,0-2-0.9-2-2v-6.2c0-1.1,0.9-2,2-2l0,0c1.1,0,2,0.9,2,2V96C52.2,97.1,51.3,98,50.2,98z"
		/>
	<path class="st4" d="M59,98L59,98c-1.1,0-2-0.9-2-2v-6.2c0-1.1,0.9-2,2-2l0,0c1.1,0,2,0.9,2,2V96C61,97.1,60.1,98,59,98z"/>
	<path class="st4" d="M67.8,98L67.8,98c-1.1,0-2-0.9-2-2v-6.2c0-1.1,0.9-2,2-2l0,0c1.1,0,2,0.9,2,2V96C69.8,97.1,68.9,98,67.8,98z"
		/>
</g>
</svg>

