<?xml version="1.0" encoding="utf-8"?>
<!-- Generator: Adobe Illustrator 25.0.1, SVG Export Plug-In . SVG Version: 6.00 Build 0)  -->
<svg version="1.1" id="Layer_1" xmlns="http://www.w3.org/2000/svg" xmlns:xlink="http://www.w3.org/1999/xlink" x="0px" y="0px"
	 viewBox="0 0 50 50" style="enable-background:new 0 0 50 50;" xml:space="preserve">
<style type="text/css">
	.st0{fill:#DDDDDD;}
</style>
<path class="st0" d="M41.3,45.8c0.4,2-1.8,3.6-3.6,2.6l-11.5-6c-0.7-0.4-1.6-0.4-2.3,0l-11.5,6c-1.8,1-4-0.6-3.6-2.6L10.9,33
	c0.1-0.8-0.1-1.6-0.7-2.2l-9.3-9.1c-1.5-1.5-0.7-4,1.4-4.3l12.8-1.9c0.8-0.1,1.5-0.6,1.9-1.4l5.7-11.6c0.9-1.9,3.6-1.9,4.5,0
	L33,14.3c0.4,0.7,1.1,1.3,1.9,1.4l12.8,1.9c2.1,0.3,2.9,2.8,1.4,4.3l-9.3,9.1c-0.6,0.6-0.9,1.4-0.7,2.2L41.3,45.8z"/>
</svg>
