<?xml version="1.0" encoding="utf-8"?>
<!-- Generator: Adobe Illustrator 25.0.1, SVG Export Plug-In . SVG Version: 6.00 Build 0)  -->
<svg version="1.1" id="Layer_1" xmlns="http://www.w3.org/2000/svg" xmlns:xlink="http://www.w3.org/1999/xlink" x="0px" y="0px"
	 viewBox="0 0 65 65" style="enable-background:new 0 0 65 65;" xml:space="preserve">
<style type="text/css">
	.st0{fill:#FFFFFF;}
</style>
<g>
	<path class="st0" d="M31.6,46.9v-3.4l-1.4-0.2c-2.1-0.2-3.8-1.8-4.2-3.8h1.9c0.4,1.2,1.7,2.1,3,2.1h2.6c2.2,0,4-1.6,4.2-3.6
		c0.1-1.2-0.3-2.4-1.1-3.2c-0.7-0.9-1.8-1.3-3-1.3h-1.9c-3.2,0-5.9-2.3-6.2-5.3c-0.3-3.1,1.7-5.8,4.7-6.4l1.3-0.2v-3.4h1.8v3.5
		l1.4,0.2c2.1,0.2,3.8,1.8,4.2,3.8h-1.9c-0.4-1.2-1.7-2.1-3-2.1h-2.6c-2.2,0-4,1.6-4.2,3.6c-0.1,1.2,0.3,2.4,1.1,3.2
		c0.7,0.9,1.8,1.3,3,1.3h2.2c1.6,0,3.2,0.7,4.4,2c1.1,1.3,1.7,2.9,1.5,4.5c-0.2,2.5-2.1,4.6-4.8,5.1l-1.3,0.3v3.4H31.6z"/>
	<g>
		<path class="st0" d="M49.2,51.6c-0.2,0-0.3,0.1-0.5,0.2c-4.5,3.8-10.3,5.9-16.3,5.9c-13.9,0-25.2-11.3-25.2-25.2v-3.6h0v-8
			l4.9,4.3c0.1,0.1,0.2,0.1,0.4,0.1c0.2,0,0.4-0.1,0.5-0.2c0.1-0.1,0.2-0.3,0.1-0.4c0-0.2-0.1-0.3-0.2-0.4l-5.8-5.1l-0.1-0.1l0,0
			c-0.1,0-0.1-0.1-0.2-0.1l-0.6,0l-0.3,0.2l-5.7,5.1c-0.2,0.2-0.2,0.7,0,0.9c0.1,0.1,0.3,0.2,0.5,0.2c0.2,0,0.3-0.1,0.4-0.2l4.9-4.3
			v7.9h0v3.6c0,14.7,11.9,26.6,26.6,26.6c6.3,0,12.4-2.3,17.2-6.3c0.1-0.1,0.2-0.2,0.2-0.4c0-0.2,0-0.4-0.1-0.5
			C49.7,51.7,49.5,51.6,49.2,51.6z"/>
		<path class="st0" d="M64.8,39.8c-0.1-0.1-0.3-0.2-0.5-0.2c-0.2,0-0.3,0.1-0.4,0.2L59.1,44v-7.9h0v-3.7c0-14.7-11.9-26.6-26.6-26.6
			c-6.3,0-12.4,2.3-17.2,6.3c-0.1,0.1-0.2,0.2-0.2,0.4c0,0.2,0,0.4,0.2,0.6c0.1,0.1,0.3,0.2,0.5,0.2c0.2,0,0.3-0.1,0.4-0.1
			c4.5-3.8,10.3-5.9,16.3-5.9c13.9,0,25.2,11.3,25.2,25.2v3.6l0,0V44l-4.9-4.3c-0.1-0.1-0.3-0.2-0.4-0.2c-0.2,0-0.4,0.1-0.5,0.2
			c-0.1,0.1-0.2,0.3-0.2,0.5c0,0.2,0.1,0.3,0.2,0.4l5.8,5.1l0.1,0.1l0,0c0.1,0,0.1,0.1,0.2,0.1l0,0h0.6l0.3-0.2l5.7-5.1
			C65.1,40.5,65.1,40.1,64.8,39.8z"/>
	</g>
</g>
</svg>
