<?xml version="1.0" encoding="utf-8"?>
<!-- Generator: Adobe Illustrator 26.0.1, SVG Export Plug-In . SVG Version: 6.00 Build 0)  -->
<svg version="1.1" id="Layer_2_00000098925563433973761060000010073140396569200557_"
	 xmlns="http://www.w3.org/2000/svg" xmlns:xlink="http://www.w3.org/1999/xlink" x="0px" y="0px" viewBox="0 0 150 150"
	 style="enable-background:new 0 0 150 150;" xml:space="preserve">
<style type="text/css">
	.st0{fill:none;stroke:#43A2F7;stroke-width:6;stroke-linecap:round;stroke-linejoin:round;stroke-miterlimit:10;}
	.st1{fill:none;stroke:#2689D3;stroke-width:6;stroke-linecap:round;stroke-linejoin:round;stroke-miterlimit:10;}
	.st2{fill:#F0ECEF;}
	.st3{fill:#CBCBCB;}
	.st4{fill:#2689D3;}
	.st5{fill:none;stroke:#CBCBCB;stroke-width:3;stroke-linecap:round;stroke-linejoin:round;stroke-miterlimit:10;}
</style>
<g>
	<path class="st0" d="M56.8,58.5c2.5-7.6,9.6-13.1,18.1-13.1c8.7,0,16,5.8,18.3,13.7"/>
	<path class="st1" d="M42.7,50.2c4.8-13.3,17.5-22.8,32.4-22.8c14.8,0,27.4,9.3,32.3,22.5"/>
	<path class="st2" d="M119.2,86.9H30.8c-2.2,0-4-1.8-4-4v-2.6c0-2.2,1.8-4,4-4h88.4c2.2,0,4,1.8,4,4v2.6
		C123.2,85.1,121.4,86.9,119.2,86.9z"/>
	<path class="st2" d="M123.4,118.5H26.6c-2.2,0-4-1.8-4-4V87.9c0-2.2,1.8-4,4-4h96.8c2.2,0,4,1.8,4,4v26.6
		C127.4,116.7,125.6,118.5,123.4,118.5z"/>
	<path class="st3" d="M130.7,118.4C130.7,118.4,130.7,118.4,130.7,118.4v-0.8c0-1.5-1.2-2.7-2.7-2.7H22c-1.5,0-2.7,1.2-2.7,2.7v0.8
		c0,0.1,0,0.1,0,0.2c0,0,0,0,0,0v2.4c0,0.8,0.7,1.5,1.5,1.5h108.3c0.8,0,1.5-0.7,1.5-1.5v-2.4C130.7,118.5,130.7,118.5,130.7,118.4z
		"/>
	<circle class="st4" cx="75" cy="64.9" r="4.3"/>
	<line class="st5" x1="120.1" y1="91.9" x2="29.9" y2="91.9"/>
</g>
</svg>

