<?xml version="1.0" encoding="utf-8"?>
<!-- Generator: Adobe Illustrator 26.0.1, SVG Export Plug-In . SVG Version: 6.00 Build 0)  -->
<svg version="1.1" id="Layer_2_00000175283764811908747220000011144134310050581673_"
	 xmlns="http://www.w3.org/2000/svg" xmlns:xlink="http://www.w3.org/1999/xlink" x="0px" y="0px" viewBox="0 0 150 150"
	 style="enable-background:new 0 0 150 150;" xml:space="preserve">
<style type="text/css">
	.st0{fill:#CBCBCB;}
	.st1{fill:#F0ECEF;}
	.st2{fill:#43A2F7;}
	.st3{fill:#FFFFFF;}
	.st4{opacity:0.26;fill:#B2B2B2;enable-background:new    ;}
	.st5{fill:#2689D3;}
</style>
<g>
	<path class="st0" d="M125.9,26.8H76.8c-1,0-2.1,0.1-3,0.3V27l-0.9,0.3c-0.6,0.2-1.2,0.4-1.8,0.6l-59.9,20c-2.5,0.7-4.4,2.6-4.4,5.3
		v31.4c0,2.1,1.2,4,3,4.8l0.5,0.3L69,124.4l0-0.2c2.3,1.3,4.9,2.1,7.8,2.1h49.1c8.6,0,15.6-7.1,15.6-15.8V42.6
		C141.5,33.9,134.5,26.8,125.9,26.8z"/>
	<path class="st1" d="M6.8,64.8l39.8-9.1c1.5,0,2.7,1.2,2.7,2.7v26.3c0,1.5-1.2,2.7-2.7,2.7L6.7,76.7C6.7,76.7,6.8,64.8,6.8,64.8z"
		/>
	<path class="st1" d="M77.1,126.9h48.6c8.8,0,16-7.2,16-16V42.6c0-8.8-7.2-16-16-16H77.1c-8.8,0-16,7.2-16,16v68.4
		C61.1,119.7,68.3,126.9,77.1,126.9z"/>
	<path class="st2" d="M120,88.6c-1.7,1.2-5.1,8.5,1.3,9.2c6.4,0.6,11.2-4.7,11.2-4.7s2.1-2.7-0.8-3.8s-7.1-1.8-8.2-1.8
		S121.7,87.4,120,88.6z"/>
	<path class="st3" d="M117.4,76.3H94h-9.5c-7.1-0.4-8.9-12.9-10-17.2s-3.9-19.6-3.3-25.2s4.4-9.9,9.9-9.9h41.2
		c5.4,0,9.5,4.7,9.9,9.9s-4.3,27.9-5.4,31.6S123.5,76.5,117.4,76.3z"/>
	<path class="st2" d="M82.5,88.5c1.7,1.2,5.1,8.5-1.3,9.2C74.7,98.3,69.9,93,69.9,93s-2.1-2.7,0.8-3.8s7.1-1.8,8.2-1.8
		S80.8,87.3,82.5,88.5z"/>
	<path class="st0" d="M71.5,43.2c-0.4-3.5-0.7-7.3-0.4-9.3c0.6-5.7,4.5-10.1,10-10.1h41.8c5.5,0,9.7,4.8,10,10.1
		c0.1,1.7-0.3,5-0.9,9L71.5,43.2z"/>
	<path class="st4" d="M38.3,39c0,0-3.1,2.7-3.3,9s0,50,0,50s0,5.4,1.4,7.2L19.1,95c0,0-0.7-2.5-0.8-6.4s-0.1-35.5-0.1-35.5
		S18,46,21,44.7s2.6-0.9,2.6-0.9L38.3,39z"/>
	<path class="st5" d="M119.8,126.9l-0.1-11.8c0-2.4-2-4.5-4.4-4.5H89c-2.4,0-4.4,2-4.4,4.5v11.8H119.8z"/>
	<path class="st2" d="M117.4,36.2H84.9c-1.4,0-2.5-1.1-2.5-2.5l0,0c0-1.4,1.1-2.5,2.5-2.5h32.5c1.4,0,2.5,1.1,2.5,2.5l0,0
		C119.9,35.1,118.8,36.2,117.4,36.2z"/>
</g>
</svg>

