<?xml version="1.0" encoding="utf-8"?>
<!-- Generator: Adobe Illustrator 26.0.1, SVG Export Plug-In . SVG Version: 6.00 Build 0)  -->
<svg version="1.1" id="Layer_2_00000153663441179211698630000012290068752321557939_"
	 xmlns="http://www.w3.org/2000/svg" xmlns:xlink="http://www.w3.org/1999/xlink" x="0px" y="0px" viewBox="0 0 150 150"
	 style="enable-background:new 0 0 150 150;" xml:space="preserve">
<style type="text/css">
	.st0{fill:#F0ECEF;}
	.st1{fill:#CBCBCB;}
	.st2{fill:none;stroke:#43A2F7;stroke-width:3;stroke-miterlimit:10;}
	.st3{fill:#2689D3;}
	.st4{fill:#143EB7;}
</style>
<g>
	<path class="st0" d="M115.9,37.6c-0.9-14.1-12.7-25.3-27-25.3c-10.5,0-19.5,5.9-24,14.7c-2.1-0.8-4.3-1.2-6.7-1.2
		c-10.8,0-19.5,8.7-19.5,19.5c0,0.1,0,0.1,0,0.2c-0.3,0-0.6,0-0.8,0c-10.8,0-19.5,8.7-19.5,19.5s8.7,19.5,19.5,19.5l72.1-0.1
		c13.1,0,23.7-10.6,23.7-23.7C133.6,49.5,126.1,40.2,115.9,37.6z"/>
	<path class="st1" d="M110.2,78.4l-72.1,0.1c-10.2,0-18.5-7.8-19.4-17.7c-0.3,1.3-0.4,2.6-0.4,4c0,10.8,8.7,19.5,19.5,19.5l72.1-0.1
		c13.1,0,23.7-10.6,23.7-23.7c0-0.5,0-1-0.1-1.5C131.6,70.1,121.9,78.4,110.2,78.4z"/>
	<line class="st2" x1="75.4" y1="44.9" x2="75.4" y2="94.4"/>
	<path class="st2" d="M92.4,52.7c2.2,0,4,1.8,4,4v8.6c0,2.2-1.8,4-4,4H57.5c-2.2,0-4-1.8-4-4v-8.6c0-2.2,1.8-4,4-4"/>
	<path class="st2" d="M39.3,111.6V98.9c0-2.2,1.8-4,4-4h63.8c2.2,0,4,1.8,4,4v12.6"/>
	<circle class="st3" cx="52.8" cy="54.3" r="6.8"/>
	<circle class="st3" cx="75.4" cy="44.7" r="6.8"/>
	<circle class="st3" cx="96.7" cy="53.9" r="6.8"/>
	<path class="st0" d="M57.4,127.1H21.2c-1.7,0-3-1.4-3-3v-7.2c0-1.7,1.4-3,3-3h36.2c1.7,0,3,1.4,3,3v7.2
		C60.4,125.7,59.1,127.1,57.4,127.1z"/>
	<path class="st1" d="M61.2,116.5H17.4c-1.7,0-3-1.4-3-3v-7.2c0-1.7,1.4-3,3-3h43.8c1.7,0,3,1.4,3,3v7.2
		C64.3,115.2,62.9,116.5,61.2,116.5z"/>
	<path class="st1" d="M61.2,137.6H17.4c-1.7,0-3-1.4-3-3v-7.2c0-1.7,1.4-3,3-3h43.8c1.7,0,3,1.4,3,3v7.2
		C64.3,136.3,62.9,137.6,61.2,137.6z"/>
	<path class="st4" d="M20.4,116.5v-4.4c0-1.1,0.9-2,2-2l0,0c1.1,0,2,0.9,2,2v4.4"/>
	<path class="st4" d="M28.2,116.5v-4.4c0-1.1,0.9-2,2-2l0,0c1.1,0,2,0.9,2,2v4.4"/>
	<path class="st4" d="M20.4,137.7v-4.4c0-1.1,0.9-2,2-2l0,0c1.1,0,2,0.9,2,2v4.4"/>
	<path class="st4" d="M28.2,137.7v-4.4c0-1.1,0.9-2,2-2l0,0c1.1,0,2,0.9,2,2v4.4"/>
	<path class="st0" d="M128.8,127.1H92.6c-1.7,0-3-1.4-3-3v-7.2c0-1.7,1.4-3,3-3h36.2c1.7,0,3,1.4,3,3v7.2
		C131.8,125.7,130.4,127.1,128.8,127.1z"/>
	<path class="st1" d="M132.6,116.5H88.8c-1.7,0-3-1.4-3-3v-7.2c0-1.7,1.4-3,3-3h43.8c1.7,0,3,1.4,3,3v7.2
		C135.6,115.2,134.3,116.5,132.6,116.5z"/>
	<path class="st1" d="M132.6,137.6H88.8c-1.7,0-3-1.4-3-3v-7.2c0-1.7,1.4-3,3-3h43.8c1.7,0,3,1.4,3,3v7.2
		C135.6,136.3,134.3,137.6,132.6,137.6z"/>
	<path class="st4" d="M91.7,116.5v-4.4c0-1.1,0.9-2,2-2l0,0c1.1,0,2,0.9,2,2v4.4"/>
	<path class="st4" d="M99.6,116.5v-4.4c0-1.1,0.9-2,2-2l0,0c1.1,0,2,0.9,2,2v4.4"/>
	<path class="st4" d="M91.7,137.7v-4.4c0-1.1,0.9-2,2-2l0,0c1.1,0,2,0.9,2,2v4.4"/>
	<path class="st4" d="M99.6,137.7v-4.4c0-1.1,0.9-2,2-2l0,0c1.1,0,2,0.9,2,2v4.4"/>
</g>
</svg>

