<?xml version="1.0" encoding="utf-8"?>
<!-- Generator: Adobe Illustrator 25.0.1, SVG Export Plug-In . SVG Version: 6.00 Build 0)  -->
<svg version="1.1" id="Layer_1" xmlns="http://www.w3.org/2000/svg" xmlns:xlink="http://www.w3.org/1999/xlink" x="0px" y="0px"
	 viewBox="0 0 100 100" style="enable-background:new 0 0 100 100;" xml:space="preserve">
<style type="text/css">
	.st0{fill:#003CBE;}
</style>
<g>
	<path class="st0" d="M86.1,67.9v11.5c0,2.9-2.4,5.3-5.3,5.3H19.2c-2.9,0-5.3-2.4-5.3-5.3V67.9H7.7v11.5c0,6.3,5.2,11.5,11.5,11.5
		h61.6c6.3,0,11.5-5.2,11.5-11.5V67.9H86.1z"/>
	<path class="st0" d="M50,71.3c0.8,0,1.6-0.3,2.2-0.9l19-19L66.8,47L53.1,60.8V9.1h-6.2v51.7L33.2,47l-4.4,4.4l19,19
		C48.4,71,49.2,71.3,50,71.3z"/>
</g>
</svg>
