<svg version="1.2" xmlns="http://www.w3.org/2000/svg" viewBox="0 0 118 126" width="118" height="126"><style>.s0{fill:#4fa6f3}.s1{fill:#cbcbcb}.s2{fill:#ffffff}.s3{fill:#43a2f7}.s4{fill:#013177}.s5{fill:#f0ecef}.s6{fill:#2689d3}</style><path fill-rule="evenodd" class="s0" d="m108.7 45.8c-0.8 3.6-2.2 6.9-4.1 9.9l5.5 7.2l-7.4 7.4l-7.2-5.5c-3 1.9-6.3 3.3-9.9 4.1l-1.2 9h-10.5l-1.2-9c-3.6-0.8-6.9-2.2-9.9-4.1l-7.2 5.5l-7.4-7.4l5.5-7.2c-1.9-3-3.3-6.3-4.1-9.9l-9-1.2v-10.5l9-1.2c0.8-3.6 2.2-6.9 4.1-9.9l-5.5-7.2l7.4-7.4l7.2 5.5c3-1.9 6.3-3.3 9.9-4.1l1.2-9h10.5l1.2 9c3.6 0.8 6.9 2.2 9.9 4.1l7.2-5.5l7.4 7.4l-5.5 7.2c1.9 3 3.3 6.3 4.1 9.9l9 1.2v10.5zm-18-6.4c0-6.3-5.2-11.5-11.5-11.5c-6.3 0-11.5 5.2-11.5 11.5c0 6.3 5.2 11.5 11.5 11.5c6.3 0 11.5-5.2 11.5-11.5z" /><path class="s1" d="m66.1 28.2v72.5c0 0.6-0.5 1.1-1.1 1.1h-63.6c-0.6 0-1.1-0.5-1.1-1.1v-72.5c0-0.6 0.5-1.1 1.1-1.1h63.6c0.6 0 1.2 0.5 1.1 1.1z" /><path class="s2" d="m59.1 33.9v57.8c0 0.6-0.5 1.1-1.1 1.1h-48.6c-0.6 0-1.1-0.5-1.1-1.1v-57.8c0-0.6 0.5-1.1 1.1-1.1h48.5c0.7 0 1.2 0.5 1.2 1.1z" /><path class="s3" d="m53.2 24.9v11.7c0 0.6-0.5 1.1-1.1 1.1h-37.9c-0.6 0-1.1-0.5-1.1-1.1v-11.7c0-0.6 0.5-1.1 1.1-1.1h10.9c0.6-3.8 4-6.8 8.1-6.8c4.1 0 7.6 2.9 8.1 6.8h10.9c0.6 0 1.1 0.4 1 1.1z" /><path class="s3" d="m20.7 48.2c0 1.6-1.4 3-3 3c-1.6 0-3-1.3-3-3c0-1.6 1.4-3 3-3c1.6 0 3 1.4 3 3z" /><path class="s4" d="m25.9 48.2h24.5z" /><path class="s4" d="m50.4 49.3h-24.5c-0.6 0-1.1-0.5-1.1-1.1c0-0.6 0.5-1.1 1.1-1.1h24.5c0.6 0 1.1 0.5 1.1 1.1c0.1 0.6-0.4 1.1-1.1 1.1z" /><path class="s3" d="m20.7 59.4c0 1.6-1.4 3-3 3c-1.6 0-3-1.3-3-3c0-1.6 1.4-3 3-3c1.6 0 3 1.3 3 3z" /><path class="s4" d="m25.9 59.4h24.5z" /><path class="s4" d="m50.4 60.5h-24.5c-0.6 0-1.1-0.5-1.1-1.1c0-0.6 0.5-1.1 1.1-1.1h24.5c0.6 0 1.1 0.5 1.1 1.1c0.1 0.6-0.4 1.1-1.1 1.1z" /><path class="s3" d="m20.7 70.5c0 1.6-1.4 3-3 3c-1.6 0-3-1.3-3-3c0-1.6 1.4-3 3-3c1.6 0.1 3 1.4 3 3z" /><path class="s4" d="m25.9 70.5h24.5z" /><path class="s4" d="m50.4 71.6h-24.5c-0.6 0-1.1-0.5-1.1-1.1c0-0.6 0.5-1.1 1.1-1.1h24.5c0.6 0 1.1 0.5 1.1 1.1c0.1 0.7-0.4 1.1-1.1 1.1z" /><path class="s3" d="m20.7 81.7c0 1.6-1.4 3-3 3c-1.6 0-3-1.3-3-3c0-1.7 1.4-3 3-3c1.6 0.1 3 1.4 3 3z" /><path class="s4" d="m25.9 81.7h24.5z" /><path class="s4" d="m50.4 82.8h-24.5c-0.6 0-1.1-0.5-1.1-1.1c0-0.6 0.5-1.1 1.1-1.1h24.5c0.6 0 1.1 0.5 1.1 1.1c0.1 0.6-0.4 1.1-1.1 1.1z" /><path class="s1" d="m100.6 73.7v50.5c0 0.6-0.5 1.1-1.1 1.1h-54.7c-0.6 0-1.1-0.5-1.1-1.1v-50.5c0-3.9 3.2-7.1 7.1-7.1h42.7c3.9 0 7.1 3.2 7.1 7.1z" /><path class="s3" d="m52 59.2v8z" /><path class="s3" d="m52 68.7c-0.8 0-1.4-0.6-1.4-1.4v-8c0-0.8 0.6-1.4 1.4-1.4c0.8 0 1.4 0.6 1.4 1.4v8c0.1 0.8-0.6 1.4-1.4 1.4z" /><path class="s3" d="m92.5 59.2v8z" /><path class="s3" d="m92.5 68.7c-0.8 0-1.4-0.6-1.4-1.4v-8c0-0.8 0.6-1.4 1.4-1.4c0.8 0 1.4 0.6 1.4 1.4v8c0 0.8-0.6 1.4-1.4 1.4z" /><path class="s2" d="m62.5 96.4h19v14.4h-19z" /><path class="s5" d="m43.5 96.4h19v14.4h-19z" /><path class="s5" d="m62.6 82.1h19v14.4h-19z" /><path class="s5" d="m62.6 110.8h19v14.4h-19z" /><path class="s5" d="m81.5 96.4h19v14.4h-19z" /><path class="s3" d="m100.6 73.7v7.6c0 0.6-0.5 1.1-1.1 1.1h-54.7c-0.6 0-1.1-0.5-1.1-1.1v-7.6c0-3.9 3.2-7.1 7.1-7.1h42.7c3.9 0 7.1 3.2 7.1 7.1z" /><path class="s3" d="m114 92.5l-28 28c-0.2 0.2-0.5 0.3-0.8 0.3c-0.3 0-0.6-0.1-0.8-0.3l-16.8-16.8c-0.2-0.2-0.3-0.5-0.3-0.8c0-0.3 0.1-0.6 0.3-0.8l5.8-5.8c0.4-0.4 1.1-0.4 1.5 0l9.7 9.7l21.3-21.4c0.2-0.2 0.5-0.3 0.8-0.3c0.3 0 0.6 0.1 0.8 0.3l6.4 6.4c0.4 0.4 0.4 1.1 0.1 1.5z" /><path class="s6" d="m85 120.7c-0.3-0.1-0.4-0.2-0.6-0.3l-16.7-16.7c-0.4-0.4-0.4-1.1 0-1.5l5.8-5.8c0.4-0.4 1.1-0.4 1.5 0l9.7 9.7c0-0.1 0.1-0.1 0.2-0.1z" /></svg>