<?xml version="1.0" encoding="utf-8"?>
<!-- Generator: Adobe Illustrator 26.0.1, SVG Export Plug-In . SVG Version: 6.00 Build 0)  -->
<svg version="1.1" id="Layer_2_00000006696682154505130630000010862827127785944470_"
	 xmlns="http://www.w3.org/2000/svg" xmlns:xlink="http://www.w3.org/1999/xlink" x="0px" y="0px" viewBox="0 0 150 150"
	 style="enable-background:new 0 0 150 150;" xml:space="preserve">
<style type="text/css">
	.st0{fill:none;stroke:#43A2F7;stroke-width:3;stroke-linecap:round;stroke-linejoin:round;stroke-miterlimit:10;}
	.st1{fill:#F0ECEF;}
	.st2{fill:#CBCBCB;}
	.st3{fill:#FFFFFF;}
	.st4{fill:#143EB7;}
</style>
<g>
	<path class="st0" d="M25.6,113.2V94.5c0-2.2,2.5-4,5.4-4h86.8c3,0,5.4,1.8,5.4,4v18.7"/>
	<path class="st0" d="M123.3,37.6v16.9c0,2.2-2.4,4-5.4,4H31c-3,0-5.4-1.8-5.4-4V37.6"/>
	<polygon class="st1" points="123.7,136.1 111.7,130 111.7,113.3 123.8,119.6 	"/>
	<polygon class="st2" points="123.7,136.1 135.8,130.1 135.8,113.6 123.7,119.6 	"/>
	<polygon class="st3" points="111.7,113.4 123.7,107.4 135.8,113.6 123.7,119.6 	"/>
	<polygon class="st1" points="26.3,136.1 14.2,130 14.2,113.3 26.3,119.6 	"/>
	<polygon class="st2" points="26.3,136.1 38.3,130.1 38.3,113.6 26.3,119.6 	"/>
	<polygon class="st3" points="14.2,113.4 26.2,107.4 38.3,113.6 26.3,119.6 	"/>
	<polygon class="st1" points="123.7,42.6 111.7,36.5 111.7,19.9 123.8,26.2 	"/>
	<polygon class="st2" points="123.7,42.6 135.8,36.6 135.8,20.2 123.7,26.2 	"/>
	<polygon class="st3" points="111.7,19.9 123.7,13.9 135.8,20.2 123.7,26.2 	"/>
	<g>
		<polygon class="st1" points="26.3,42.6 14.2,36.5 14.2,19.9 26.3,26.2 		"/>
		<polygon class="st2" points="26.3,42.6 38.3,36.6 38.3,20.2 26.3,26.2 		"/>
		<polygon class="st3" points="14.2,19.9 26.2,13.9 38.3,20.2 26.3,26.2 		"/>
	</g>
	<path class="st1" d="M95.1,93.8H54.8c-1.7,0-3-1.4-3-3v-8.5c0-1.7,1.4-3,3-3h40.4c1.7,0,3,1.4,3,3v8.5
		C98.2,92.5,96.8,93.8,95.1,93.8z"/>
	<path class="st2" d="M99.3,105.4H50.5c-1.7,0-3-1.4-3-3v-8.5c0-1.7,1.4-3,3-3h48.8c1.7,0,3,1.4,3,3v8.5
		C102.4,104.1,101,105.4,99.3,105.4z"/>
	<path class="st4" d="M54.1,105.5v-4.9c0-1.2,1-2.2,2.2-2.2l0,0c1.2,0,2.2,1,2.2,2.2v4.9"/>
	<path class="st4" d="M62.7,105.5v-4.9c0-1.2,1-2.2,2.2-2.2l0,0c1.2,0,2.2,1,2.2,2.2v4.9"/>
	<path class="st1" d="M94.6,71H54.3c-1.7,0-3-1.4-3-3v-8.5c0-1.7,1.4-3,3-3h40.4c1.7,0,3,1.4,3,3V68C97.7,69.6,96.3,71,94.6,71z"/>
	<path class="st2" d="M98.8,59.4H50.1c-1.7,0-3-1.4-3-3v-8.5c0-1.7,1.4-3,3-3h48.8c1.7,0,3,1.4,3,3v8.5
		C101.9,58,100.5,59.4,98.8,59.4z"/>
	<path class="st2" d="M98.8,82.6H50.1c-1.7,0-3-1.4-3-3v-8.5c0-1.7,1.4-3,3-3h48.8c1.7,0,3,1.4,3,3v8.5
		C101.9,81.2,100.5,82.6,98.8,82.6z"/>
	<path class="st4" d="M53.7,59.4v-4.9c0-1.2,1-2.2,2.2-2.2l0,0c1.2,0,2.2,1,2.2,2.2v4.9"/>
	<path class="st4" d="M62.2,59.4v-4.9c0-1.2,1-2.2,2.2-2.2l0,0c1.2,0,2.2,1,2.2,2.2v4.9"/>
	<path class="st4" d="M53.7,82.7v-4.9c0-1.2,1-2.2,2.2-2.2l0,0c1.2,0,2.2,1,2.2,2.2v4.9"/>
	<path class="st4" d="M62.2,82.7v-4.9c0-1.2,1-2.2,2.2-2.2l0,0c1.2,0,2.2,1,2.2,2.2v4.9"/>
</g>
</svg>

