<?xml version="1.0" encoding="utf-8"?>
<!-- Generator: Adobe Illustrator 25.0.1, SVG Export Plug-In . SVG Version: 6.00 Build 0)  -->
<svg version="1.1" id="Layer_1" xmlns="http://www.w3.org/2000/svg" xmlns:xlink="http://www.w3.org/1999/xlink" x="0px" y="0px"
	 viewBox="0 0 25 24" style="enable-background:new 0 0 25 24;" xml:space="preserve">
<style type="text/css">
	.st0{fill:#101135;}
</style>
<g>
	<path class="st0" d="M22.3,1.6H19V1c0-0.4-0.3-0.7-0.7-0.7c-0.4,0-0.7,0.3-0.7,0.7v0.6H7.4V1c0-0.4-0.3-0.7-0.7-0.7S6,0.6,6,1v0.6
		H2.7C1.2,1.6,0,2.8,0,4.3v16.8c0,1.5,1.2,2.7,2.7,2.7h19.7c1.5,0,2.7-1.2,2.7-2.7V4.3C25,2.8,23.8,1.6,22.3,1.6z M2.7,3H6v0.6
		C6,4,6.3,4.3,6.7,4.3S7.4,4,7.4,3.6V3h10.2v0.6c0,0.4,0.3,0.7,0.7,0.7C18.7,4.3,19,4,19,3.6V3h3.4c0.7,0,1.3,0.6,1.3,1.3v1.8H1.4
		V4.3C1.4,3.6,1.9,3,2.7,3z M22.3,22.3H2.7c-0.7,0-1.3-0.6-1.3-1.3V7.5h22.2v13.6C23.6,21.8,23.1,22.3,22.3,22.3z"/>
	<path class="st0" d="M7.2,9.6H4.7c-0.7,0-1.2,0.6-1.2,1.2v1.9c0,0.7,0.6,1.2,1.2,1.2h2.5c0.7,0,1.2-0.6,1.2-1.2v-1.9
		C8.4,10.1,7.9,9.6,7.2,9.6z M7.1,12.6H4.8V11h2.2V12.6z"/>
	<path class="st0" d="M13.7,9.6h-2.5c-0.7,0-1.2,0.6-1.2,1.2v1.9c0,0.7,0.6,1.2,1.2,1.2h2.5c0.7,0,1.2-0.6,1.2-1.2v-1.9
		C15,10.1,14.4,9.6,13.7,9.6z M13.6,12.6h-2.2V11h2.2C13.6,11,13.6,12.6,13.6,12.6z"/>
	<path class="st0" d="M20.3,9.6h-2.5c-0.7,0-1.2,0.6-1.2,1.2v1.9c0,0.7,0.6,1.2,1.2,1.2h2.5c0.7,0,1.2-0.6,1.2-1.2v-1.9
		C21.5,10.1,21,9.6,20.3,9.6z M20.2,12.6h-2.2V11h2.2V12.6z"/>
	<path class="st0" d="M7.2,15.9H4.7c-0.7,0-1.2,0.6-1.2,1.2V19c0,0.7,0.6,1.2,1.2,1.2h2.5c0.7,0,1.2-0.6,1.2-1.2v-1.9
		C8.4,16.4,7.9,15.9,7.2,15.9z M7.1,18.9H4.8v-1.6h2.2V18.9z"/>
	<path class="st0" d="M13.7,15.9h-2.5c-0.7,0-1.2,0.6-1.2,1.2V19c0,0.7,0.6,1.2,1.2,1.2h2.5c0.7,0,1.2-0.6,1.2-1.2v-1.9
		C15,16.4,14.4,15.9,13.7,15.9z M13.6,18.9h-2.2v-1.6h2.2C13.6,17.3,13.6,18.9,13.6,18.9z"/>
	<path class="st0" d="M20.3,15.9h-2.5c-0.7,0-1.2,0.6-1.2,1.2V19c0,0.7,0.6,1.2,1.2,1.2h2.5c0.7,0,1.2-0.6,1.2-1.2v-1.9
		C21.5,16.4,21,15.9,20.3,15.9z M20.2,18.9h-2.2v-1.6h2.2V18.9z"/>
</g>
</svg>
