<?xml version="1.0" encoding="utf-8"?>
<!-- Generator: Adobe Illustrator 25.0.1, SVG Export Plug-In . SVG Version: 6.00 Build 0)  -->
<svg version="1.1" id="Layer_1" xmlns="http://www.w3.org/2000/svg" xmlns:xlink="http://www.w3.org/1999/xlink" x="0px" y="0px"
	 viewBox="0 0 32.4 29.7" style="enable-background:new 0 0 32.4 29.7;" xml:space="preserve">
<style type="text/css">
	.st0{fill:#BFBFBF;}
</style>
<path class="st0" d="M19.5,15.7c1.9-1.1,3.2-3.2,3.2-5.6c0-3.6-3-6.6-6.6-6.6c-3.7,0-6.6,2.9-6.6,6.6c0,2.4,1.3,4.5,3.2,5.6
	c-4.4,1.3-7.6,5.1-8,9.6c0,0.4,0.3,0.8,0.8,0.8h21.2c0.5,0,0.8-0.4,0.8-0.8C27.2,20.8,23.9,17,19.5,15.7z M16.2,5.7
	c2.4,0,4.4,1.9,4.4,4.3c0,2.4-2,4.3-4.4,4.3c-2.4,0-4.4-1.9-4.4-4.3C11.8,7.7,13.8,5.7,16.2,5.7z M7.4,23.9c1-3.8,4.6-6.5,8.8-6.5
	s7.8,2.8,8.8,6.5H7.4z"/>
</svg>
