<?xml version="1.0" encoding="utf-8"?>
<!-- Generator: Adobe Illustrator 25.0.1, SVG Export Plug-In . SVG Version: 6.00 Build 0)  -->
<svg version="1.1" id="Layer_1" xmlns="http://www.w3.org/2000/svg" xmlns:xlink="http://www.w3.org/1999/xlink" x="0px" y="0px"
	 viewBox="0 0 18 15" style="enable-background:new 0 0 18 15;" xml:space="preserve">
<style type="text/css">
	.st0{fill:#AFAFAE;}
	.st1{display:none;}
	.st2{display:inline;fill:#AFAFAE;}
	.st3{display:none;fill:#AFAFAE;}
</style>
<path class="st0" d="M9,13.2c-3.6,0-6.8-2.1-9-5.8C0,7.4,0,7.2,0,7.1c2.1-3.7,5.4-5.8,9-5.8c3.6,0,6.8,2.1,9,5.8
	C18,7.2,18,7.4,18,7.5C15.8,11.1,12.6,13.2,9,13.2z M9,2C5.8,2,2.8,3.9,0.8,7.2L0.7,7.3l0.1,0.1c2,3.3,5,5.2,8.2,5.2
	c3.2,0,6.2-1.9,8.2-5.2l0.1-0.1l-0.1-0.1C15.2,3.9,12.2,2,9,2z M9,10.7c-1.9,0-3.4-1.5-3.4-3.4S7.1,3.9,9,3.9c1.9,0,3.4,1.5,3.4,3.4
	C12.4,9.2,10.9,10.7,9,10.7z M9,4.6c-1.5,0-2.7,1.2-2.7,2.7S7.5,10,9,10c1.5,0,2.7-1.2,2.7-2.7C11.7,5.8,10.5,4.6,9,4.6z"/>
<g class="st1">
	<path class="st2" d="M14.7,15c0.1,0,0.2-0.1,0.2-0.3V0.8c0-0.5-0.4-0.8-0.9-0.8H4.1C3.6,0,3.2,0.4,3.2,0.8v13.9
		c0,0.2,0.1,0.3,0.3,0.3c0.1,0,0.1,0,0.2-0.1L9,9.6l5.4,5.4C14.4,15,14.6,15,14.7,15z M14.3,14.1L9.2,9C9.1,8.9,8.9,8.9,8.8,9
		l-5.1,5.1V0.8c0-0.2,0.2-0.3,0.3-0.3h9.9c0.2,0,0.3,0.1,0.3,0.3V14.1z"/>
</g>
<path class="st3" d="M16.2,15H1.8c-0.2,0-0.3-0.2-0.3-0.3v-4.1c0-0.2,0.2-0.3,0.3-0.3s0.3,0.2,0.3,0.3v3.7h13.6v-3.7
	c0-0.2,0.2-0.3,0.3-0.3c0.2,0,0.3,0.2,0.3,0.3v4C16.5,14.8,16.3,15,16.2,15z M9,12.8L9,12.8c-0.1,0-0.2,0-0.3-0.1L5,8.7
	c-0.1-0.1-0.1-0.4,0-0.5c0.1-0.1,0.4-0.1,0.5,0l3.1,3.3V0.4C8.6,0.2,8.8,0,9,0s0.3,0.2,0.3,0.3v11.2l3.1-3.3c0.1-0.1,0.4-0.1,0.5,0
	c0.1,0.1,0.1,0.4,0,0.5l-3.7,4C9.2,12.8,9.1,12.8,9,12.8z"/>
</svg>
