<?xml version="1.0" encoding="utf-8"?>
<!-- Generator: Adobe Illustrator 26.0.1, SVG Export Plug-In . SVG Version: 6.00 Build 0)  -->
<svg version="1.1" id="Layer_1" xmlns="http://www.w3.org/2000/svg" xmlns:xlink="http://www.w3.org/1999/xlink" x="0px" y="0px"
	 viewBox="0 0 150 150" style="enable-background:new 0 0 150 150;" xml:space="preserve">
<style type="text/css">
	.st0{display:none;}
	.st1{display:inline;}
	.st2{fill:#143EB7;}
	.st3{fill:#013177;}
	.st4{fill:#F7941E;}
	.st5{fill:#27AAE1;}
	.st6{fill:#FBB040;}
	.st7{fill:#1642B2;}
	.st8{fill:#F0ECEF;}
	.st9{fill:#08339E;}
	.st10{opacity:0.26;fill:#013177;enable-background:new    ;}
	.st11{fill:#CBCBCB;}
	.st12{fill:#43A2F7;}
	.st13{fill:#2689D3;}
	.st14{opacity:0.35;fill:#CBCBCB;enable-background:new    ;}
</style>
<g id="Layer_1_00000132082349962267000740000001377847219147661212_">
	<g id="Layer_1_00000124844750560061790050000013750259515035095681_" class="st0">
		<g class="st1">
			<path class="st2" d="M131.7,35.9L75.2,15.6c-0.4-0.1-0.8-0.1-1.1,0L17.5,35.9c-0.7,0.2-1.1,0.9-1.1,1.6s0.4,1.3,1.1,1.6L74,59.4
				c0.2,0.1,0.4,0.1,0.6,0.1c0.2,0,0.4,0,0.6-0.1L131.7,39c0.7-0.2,1.1-0.9,1.1-1.6C132.8,36.8,132.4,36.1,131.7,35.9z"/>
			<path class="st2" d="M75.2,56.2L18.6,35.9c-0.5-0.2-1.1-0.1-1.5,0.2c-0.4,0.3-0.7,0.8-0.7,1.4v72.4c0,0.7,0.4,1.3,1,1.5l56.5,24
				c0.2,0.1,0.4,0.1,0.7,0.1c0.3,0,0.7-0.1,0.9-0.3c0.5-0.3,0.8-0.8,0.8-1.4V57.8C76.2,57.1,75.8,56.5,75.2,56.2z"/>
			<path class="st3" d="M132.1,36.1c-0.4-0.3-1-0.4-1.5-0.2L74,56.2c-0.7,0.2-1.1,0.9-1.1,1.6v76.1c0,0.6,0.3,1.1,0.8,1.4
				c0.3,0.2,0.6,0.3,0.9,0.3c0.2,0,0.5-0.1,0.7-0.1l56.5-25.4c0.6-0.3,1-0.9,1-1.5v-71C132.8,36.9,132.5,36.4,132.1,36.1z"/>
			<path class="st4" d="M91.4,21.4L35.9,43.8v27.8c0,0.8,0.5,1.5,1.2,1.8l15.7,6c0.2,0.1,0.5,0.1,0.7,0.1c0.4,0,0.8-0.1,1.1-0.3
				c0.5-0.3,0.8-0.9,0.8-1.6V51l58.2-21.6L91.4,21.4z"/>
			<g>
				<path class="st5" d="M83.8,117.7l21.2-9.6L83.8,117.7z"/>
				<path class="st4" d="M83.8,119.3c-0.6,0-1.2-0.4-1.5-1c-0.4-0.8,0-1.8,0.8-2.2l21.2-9.6c0.8-0.4,1.8,0,2.2,0.8
					c0.4,0.8,0,1.8-0.8,2.2l-21.2,9.6C84.3,119.3,84.1,119.3,83.8,119.3z"/>
			</g>
			<path class="st4" d="M82.9,105c-0.4,0-0.8-0.1-1.1-0.4c-0.7-0.6-0.8-1.6-0.2-2.3l4.7-5.7c0.6-0.7,1.5-0.8,2.2-0.3l3.7,2.6
				c0.8,0.5,0.9,1.6,0.4,2.3c-0.5,0.8-1.6,0.9-2.3,0.4l-2.5-1.7l-3.7,4.5C83.9,104.8,83.4,105,82.9,105z"/>
			<path class="st4" d="M87.6,117.4c-0.9,0-1.7-0.8-1.7-1.7V97.6c0-0.9,0.8-1.7,1.7-1.7s1.7,0.8,1.7,1.7v18.1
				C89.3,116.7,88.5,117.4,87.6,117.4z"/>
			<path class="st4" d="M95.6,99.6c-0.4,0-0.8-0.1-1.1-0.4c-0.7-0.6-0.8-1.6-0.2-2.3l4.7-5.7c0.6-0.7,1.5-0.8,2.2-0.3l3.7,2.6
				c0.8,0.5,0.9,1.6,0.4,2.3s-1.6,0.9-2.3,0.4l-2.5-1.7l-3.7,4.5C96.5,99.3,96.1,99.6,95.6,99.6z"/>
			<path class="st4" d="M100.2,112c-0.9,0-1.7-0.8-1.7-1.7V92.2c0-0.9,0.7-1.7,1.7-1.7c0.9,0,1.7,0.8,1.7,1.7v18.1
				C101.9,111.2,101.2,112,100.2,112z"/>
			<path class="st6" d="M53.7,50.3l-16.1-5.8L36,43.9c-0.1,0.2-0.1,0.4-0.1,0.6v27c0,0.8,0.5,1.5,1.2,1.8l15.7,6
				c0.2,0.1,0.5,0.1,0.7,0.1c0.4,0,0.8-0.1,1.1-0.3c0.5-0.3,0.8-0.9,0.8-1.6V50.9L53.7,50.3z"/>
		</g>
	</g>
	<g id="Layer_2_00000054982959569138628060000000523458760423029434_" class="st0">
		<g class="st1">
			<path class="st3" d="M125.7,27.3h-49c-1,0-2.1,0.1-3,0.3v-0.1l-0.9,0.3c-0.6,0.2-1.2,0.4-1.7,0.6L11.3,48.1
				c-2.5,0.7-4.4,2.6-4.4,5.2v31c0,2.1,1.2,3.9,3,4.8l0.5,0.3l58.6,34.4l0-0.2c2.3,1.3,4.9,2.1,7.8,2.1h49c8.6,0,15.6-7,15.6-15.6
				V42.9C141.2,34.3,134.2,27.3,125.7,27.3z"/>
			<path class="st7" d="M6.9,64.9l39.7-9c1.5,0,2.7,1.2,2.7,2.7v26c0,1.5-1.2,2.7-2.7,2.7L6.8,76.7C6.8,76.6,6.9,64.9,6.9,64.9z"/>
			<path class="st2" d="M76.1,126.3h50.4c8.3,0,15-6.8,15-15V42c0-8.3-6.8-15-15-15H76.1c-8.3,0-15,6.7-15,15v69.3
				C61.1,119.6,67.8,126.3,76.1,126.3z"/>
			<path class="st8" d="M119.8,88.4c-1.7,1.2-5.1,8.4,1.3,9.1c6.4,0.6,11.2-4.7,11.2-4.7s2.1-2.7-0.8-3.8c-2.9-1.1-7.1-1.8-8.1-1.8
				S121.4,87.2,119.8,88.4z"/>
			<path class="st8" d="M117.2,76.3H93.9h-9.5c-7.1-0.4-8.8-12.8-9.9-17c-1.1-4.3-3.9-19.4-3.3-24.9s4.4-9.8,9.8-9.8h41.1
				c5.4,0,9.5,4.7,9.8,9.8s-4.3,27.6-5.4,31.2C125.5,69.2,123.2,76.5,117.2,76.3z"/>
			<path class="st8" d="M82.4,88.3c1.7,1.2,5.1,8.4-1.3,9.1c-6.4,0.6-11.2-4.7-11.2-4.7s-2.1-2.7,0.8-3.8c2.9-1.1,7.1-1.8,8.1-1.8
				C79.8,87.1,80.7,87.1,82.4,88.3z"/>
			<path class="st9" d="M71.5,43.5C71,40,70.8,36.3,71,34.3c0.6-5.6,4.5-10,10-10h41.8c5.5,0,9.7,4.7,10,10c0.1,1.6-0.3,5-0.9,8.9
				L71.5,43.5z"/>
			<path class="st10" d="M38.3,39.3c0,0-3.1,2.7-3.3,8.9s0,49.4,0,49.4s0,5.4,1.4,7.1l-17.2-10c0,0-0.7-2.4-0.8-6.3
				c-0.1-3.9-0.1-35.1-0.1-35.1s-0.2-7.1,2.8-8.4s2.6-0.9,2.6-0.9L38.3,39.3z"/>
			<path class="st4" d="M119.6,126.3l-0.1-11.7c0-2.4-2-4.4-4.4-4.4H88.9c-2.4,0-4.4,2-4.4,4.4v11.7L119.6,126.3z"/>
			<path class="st6" d="M117.2,36.6H84.8c-1.4,0-2.5-1.1-2.5-2.5l0,0c0-1.4,1.1-2.5,2.5-2.5h32.4c1.4,0,2.5,1.1,2.5,2.5l0,0
				C119.7,35.5,118.6,36.6,117.2,36.6z"/>
		</g>
	</g>
	<g id="Layer_3">
		<g>
			<path class="st8" d="M60.4,115.8"/>
			<path class="st8" d="M117.6,131.2H67.3l6.1-14.9c0.9-2.2-0.2-4.7-2.3-5.6l-4.2-1.7c-2.2-0.9-4.7,0.2-5.6,2.3l-9.1,22.2
				c-0.2,0.4-0.3,0.9-0.3,1.4c-0.5,0.9-0.7,1.9-0.7,3l0,0c0,3.6,3,6.6,6.6,6.6h59.9c3.6,0,6.6-3,6.6-6.6l0,0
				C124.2,134.2,121.2,131.2,117.6,131.2z"/>
			<g>
				<path class="st11" d="M55.2,139.3c0.1,1.7,2.3,4.3,4.9,5.2h-2.5c-3.6,0-6.6-3-6.6-6.6c0,0,0,1.3,0,0s0.8-3.3,1-4.4
					c0.2-1,9.1-22.2,9.1-22.2c0.9-2.2,3.4-3.2,5.6-2.3l1.1,0.5c-0.9,0.4-1.7,1.2-2.2,2.2c0,0-8.8,21.2-9.1,22.2
					C55.9,135.6,55,137.2,55.2,139.3z"/>
			</g>
			<polygon class="st11" points="71.9,120 59.4,120 59.4,115.5 73.7,115.5 			"/>
			<path class="st11" d="M117.5,92.9H70.6L59.2,53c0.9-1.5,1.2-3.4,0.7-5.2L49.6,11.2c-1-3.5-4.7-5.6-8.2-4.6l-10.7,3
				c-3.5,1-5.6,4.7-4.6,8.2l5,17.7c0,0.3,0.1,0.5,0.1,0.8l21.4,75.3c0.4,1.3,1.4,2.3,2.6,2.8c1,0.7,2.3,1.1,3.7,1.1h58.7
				c3.6,0,6.6-3,6.6-6.6v-9.4C124.1,95.9,121.1,92.9,117.5,92.9z"/>
			<path class="st8" d="M119.7,92.3H70.5L59.6,54.4c4-2.7,6.1-7.7,4.7-12.6l-7.7-27.5c-1.7-6.1-8-9.6-14.1-7.9l-1.6,0.4
				c-6,1.7-9.6,8.1-7.9,14.1l7.7,27.5c0.2,0.7,0.5,1.4,0.8,2.1l15.6,54.4c0.4,1.5,1.6,2.6,3,3c0.6,0.3,1.2,0.5,1.9,0.5h57.6
				c2.4,0,4.3-1.9,4.3-4.3v-7.4C124,94.3,122.1,92.3,119.7,92.3z"/>
			<path class="st12" d="M109.4,80.9H55.8c-2.2,0-4-1.8-4-4v-4.7c0-2.2,1.8-4,4-4h53.6c2.2,0,4,1.8,4,4v4.7
				C113.4,79.1,111.6,80.9,109.4,80.9z"/>
			<path class="st13" d="M113.3,71.6v0.7c0,2.4-1.9,4.3-4.3,4.3H56c-2,0-3.8-1.4-4.2-3.4v3.4c0,2.4,1.9,4.3,4.3,4.3h53
				c2.4,0,4.3-1.9,4.3-4.3v-4C113.4,72.2,113.4,71.9,113.3,71.6z"/>
		</g>
	</g>
	<g id="Layer_4" class="st0">
		<g class="st1">
			<path class="st8" d="M7.5,45.6l80.5-0.2c0,0,14.6-0.9,29.5,13.3S139.4,81,139.4,81s6.4,7.5,0.4,15.5c0,0-4,8.4-16,8L7.6,104.1
				L7.5,45.6z"/>
			<path class="st3" d="M7.6,104l116.4,0.6c12,0.4,16-8,16-8c2.4-3.2,2.8-6.3,2.4-8.9H89.9c-5.8,0.2-10.3-5.7-10.3-5.7
				c-2.8-4-8.7-4-8.7-4L7.5,78.3"/>
			<path class="st2" d="M65.8,69.8H43.7c-1.5,0-2.7-1.2-2.7-2.7v-9.5c0-1.5,1.2-2.7,2.7-2.7h22.1c1.5,0,2.7,1.2,2.7,2.7v9.5
				C68.5,68.6,67.3,69.8,65.8,69.8z"/>
			<path class="st2" d="M7.6,69.7h22.1c1.5,0,2.7-1.2,2.7-2.7v-9.5c0-1.5-1.2-2.7-2.7-2.7H7.6V69.7z"/>
			<path class="st2" d="M117.2,58.3c-1.4-1.3-2.9-2.5-4.3-3.5H86.6c-1.5,0-2.7,1.2-2.7,2.7v7.7v0.5v0.8c0,5.7,4.6,10.3,10.3,10.3
				h36.1c0.3,0,0.5,0,0.8,0l4.4,0C132.1,72.9,126,66.7,117.2,58.3z"/>
			<path class="st14" d="M139.4,81.1c0,0-7.1-8.2-21.9-22.4C102.6,44.5,88,45.4,88,45.4l-10.1,0c4.3,0.2,15.9,2,27.8,13.3
				c14.8,14.2,21.9,22.4,21.9,22.4s6.4,7.5,0.4,15.5c0,0-3.5,7.3-13.6,7.9l9.5,0c12,0.4,16-8,16-8C145.9,88.6,139.4,81.1,139.4,81.1
				z"/>
			<path class="st6" d="M50.2,98L50.2,98c-1.1,0-2-0.9-2-2v-6.2c0-1.1,0.9-2,2-2l0,0c1.1,0,2,0.9,2,2V96C52.2,97.1,51.3,98,50.2,98z
				"/>
			<path class="st6" d="M59,98L59,98c-1.1,0-2-0.9-2-2v-6.2c0-1.1,0.9-2,2-2l0,0c1.1,0,2,0.9,2,2V96C61,97.1,60.1,98,59,98z"/>
			<path class="st6" d="M67.8,98L67.8,98c-1.1,0-2-0.9-2-2v-6.2c0-1.1,0.9-2,2-2l0,0c1.1,0,2,0.9,2,2V96C69.8,97.1,68.9,98,67.8,98z
				"/>
		</g>
	</g>
</g>
<g id="Layer_2_00000085234496494459532600000003013901455332730541_">
</g>
</svg>

