<?xml version="1.0" encoding="utf-8"?>
<!-- Generator: Adobe Illustrator 26.0.1, SVG Export Plug-In . SVG Version: 6.00 Build 0)  -->
<svg version="1.1" id="Layer_2_00000057114691437163435330000007895510091993911699_"
	 xmlns="http://www.w3.org/2000/svg" xmlns:xlink="http://www.w3.org/1999/xlink" x="0px" y="0px" viewBox="0 0 150 150"
	 style="enable-background:new 0 0 150 150;" xml:space="preserve">
<style type="text/css">
	.st0{fill:#F0ECEF;}
	.st1{fill:#CBCBCB;}
	.st2{fill:#2689D3;}
	.st3{fill:#43A2F7;}
</style>
<g>
	<path class="st0" d="M131.8,36L75.1,15.5c-0.4-0.1-0.8-0.1-1.1,0L17.2,36c-0.7,0.2-1.1,0.9-1.1,1.6c0,0.7,0.4,1.3,1.1,1.6
		l56.8,20.4c0.2,0.1,0.4,0.1,0.6,0.1s0.4,0,0.6-0.1l56.8-20.4c0.7-0.2,1.1-0.9,1.1-1.6C132.9,36.8,132.5,36.2,131.8,36z"/>
	<path class="st0" d="M75.1,56.4L18.3,36c-0.5-0.2-1.1-0.1-1.5,0.2c-0.5,0.3-0.7,0.8-0.7,1.4v72.7c0,0.7,0.4,1.3,1,1.5l56.8,24.1
		c0.2,0.1,0.4,0.1,0.7,0.1c0.3,0,0.7-0.1,0.9-0.3c0.5-0.3,0.8-0.8,0.8-1.4V58C76.2,57.2,75.7,56.6,75.1,56.4z"/>
	<path class="st1" d="M132.2,36.2c-0.4-0.3-1-0.4-1.5-0.2L73.9,56.4c-0.7,0.2-1.1,0.9-1.1,1.6v76.4c0,0.6,0.3,1.1,0.8,1.4
		c0.3,0.2,0.6,0.3,0.9,0.3c0.2,0,0.5-0.1,0.7-0.1l56.8-25.5c0.6-0.3,1-0.9,1-1.5V37.5C132.9,37,132.7,36.5,132.2,36.2z"/>
	<path class="st2" d="M91.4,21.4L35.7,43.9v27.9c0,0.8,0.5,1.5,1.2,1.8l15.8,6c0.2,0.1,0.5,0.1,0.7,0.1c0.4,0,0.8-0.1,1.1-0.3
		c0.5-0.3,0.8-0.9,0.8-1.6V51.1l58.5-21.7L91.4,21.4z"/>
	<g>
		<path class="st2" d="M83.8,118.1l21.2-9.6L83.8,118.1z"/>
		<path class="st2" d="M83.8,119.8c-0.6,0-1.2-0.4-1.5-1c-0.4-0.8,0-1.8,0.8-2.2l21.2-9.6c0.8-0.4,1.8,0,2.2,0.8
			c0.4,0.8,0,1.8-0.8,2.2l-21.2,9.6C84.2,119.7,84,119.8,83.8,119.8z"/>
	</g>
	<path class="st2" d="M82.9,105.3c-0.4,0-0.8-0.1-1.1-0.4c-0.7-0.6-0.8-1.7-0.2-2.4l4.7-5.7c0.6-0.7,1.5-0.8,2.2-0.3l3.7,2.6
		c0.8,0.5,0.9,1.6,0.4,2.3c-0.5,0.8-1.6,0.9-2.3,0.4l-2.5-1.7l-3.7,4.5C83.8,105.1,83.4,105.3,82.9,105.3z"/>
	<path class="st2" d="M87.6,117.8c-0.9,0-1.7-0.8-1.7-1.7V98c0-0.9,0.8-1.7,1.7-1.7s1.7,0.8,1.7,1.7v18.2
		C89.3,117.1,88.5,117.8,87.6,117.8z"/>
	<path class="st2" d="M95.6,99.9c-0.4,0-0.8-0.1-1.1-0.4c-0.7-0.6-0.8-1.6-0.2-2.4l4.7-5.7c0.6-0.7,1.5-0.8,2.3-0.3l3.7,2.6
		c0.8,0.5,0.9,1.6,0.4,2.3s-1.6,0.9-2.3,0.4l-2.5-1.7l-3.7,4.5C96.5,99.7,96.1,99.9,95.6,99.9z"/>
	<path class="st2" d="M100.3,112.3c-0.9,0-1.7-0.8-1.7-1.7V92.5c0-0.9,0.8-1.7,1.7-1.7c0.9,0,1.7,0.8,1.7,1.7v18.2
		C101.9,111.6,101.2,112.3,100.3,112.3z"/>
	<path class="st3" d="M53.5,50.4l-16.2-5.8L35.7,44c-0.1,0.2-0.1,0.4-0.1,0.6v27.2c0,0.8,0.5,1.5,1.2,1.8l15.8,6
		c0.2,0.1,0.5,0.1,0.7,0.1c0.4,0,0.8-0.1,1.1-0.3c0.5-0.3,0.8-0.9,0.8-1.6V51L53.5,50.4z"/>
</g>
</svg>

