<?xml version="1.0" encoding="utf-8"?>
<!-- Generator: Adobe Illustrator 25.0.1, SVG Export Plug-In . SVG Version: 6.00 Build 0)  -->
<svg version="1.1" id="Layer_1" xmlns="http://www.w3.org/2000/svg" xmlns:xlink="http://www.w3.org/1999/xlink" x="0px" y="0px"
	 viewBox="0 0 100 100" style="enable-background:new 0 0 100 100;" xml:space="preserve">
<style type="text/css">
	.st0{fill:#003CBE;}
</style>
<g>
	<path class="st0" d="M86.8,49.6l-0.6,0.6v31.1c0,2.6-2.2,4.8-4.8,4.8H18.7c-2.7,0-4.8-2.2-4.8-4.8v-2.7c-0.9,0.2-1.8,0.3-2.8,0.3
		s-2-0.1-2.9-0.3v2.7c0,5.8,4.7,10.5,10.5,10.5h62.6c5.8,0,10.5-4.7,10.5-10.5V49.5c-0.9,0.2-1.9,0.3-2.9,0.3
		C88.1,49.8,87.4,49.8,86.8,49.6z"/>
	<path class="st0" d="M13.9,50.7V18.8c0-2.7,2.1-4.8,4.8-4.8h62.6c2.6,0,4.8,2.1,4.8,4.8v2.7c0.9-0.2,1.8-0.3,2.8-0.3s2,0.1,2.9,0.3
		v-2.7c0-5.8-4.7-10.5-10.5-10.5H18.7C12.9,8.3,8.2,13,8.2,18.8v31.9c0.9-0.2,1.9-0.3,2.9-0.3C12,50.3,13,50.3,13.9,50.7z"/>
	<path class="st0" d="M88.9,26.9c-4.7,0-8.6,3.9-8.6,8.6c0,1.3,0.3,2.5,0.8,3.6L66.6,53.2c-1.1-0.6-2.4-0.9-3.8-0.9
		c-2.1,0-4,0.8-5.5,2.1l-12-6.9c0.1-0.5,0.2-1,0.2-1.6c0-4.7-3.9-8.6-8.6-8.6s-8.6,3.9-8.6,8.6c0,0.8,0.2,1.6,0.4,2.4L16,57.6
		c-1.4-1-3.1-1.5-4.9-1.5c-4.7,0-8.6,3.9-8.6,8.6s3.9,8.6,8.6,8.6s8.6-3.9,8.6-8.6c0-0.8-0.2-1.6-0.4-2.4L32.2,53
		c1.4,1,3.1,1.5,4.9,1.5c2.1,0,4-0.8,5.5-2.1l12,6.9c-0.1,0.5-0.2,1-0.2,1.6c0,4.7,3.9,8.6,8.6,8.6s8.6-3.9,8.6-8.6
		c0-1.3-0.3-2.5-0.8-3.6l14.4-14.1c1.1,0.6,2.4,0.9,3.8,0.9c4.7,0,8.6-3.9,8.6-8.6S93.6,26.9,88.9,26.9z M11.1,67.5
		c-1.6,0-2.9-1.3-2.9-2.9s1.3-2.9,2.9-2.9s2.9,1.4,2.9,3S12.7,67.5,11.1,67.5z M37,48.8c-1.6,0-2.9-1.3-2.9-2.9
		c0-1.6,1.3-2.9,2.9-2.9s2.9,1.3,2.9,2.9S38.5,48.8,37,48.8z M63,63.8c-1.6,0-2.9-1.3-2.9-2.9c0-1.6,1.3-2.9,2.9-2.9
		c1.6,0,2.9,1.3,2.9,2.9C65.8,62.5,64.6,63.8,63,63.8z M88.9,38.3c-1.6,0-2.9-1.3-2.9-2.9c0-1.6,1.3-2.9,2.9-2.9s2.9,1.3,2.9,2.9
		C91.8,37.1,90.4,38.3,88.9,38.3z"/>
</g>
</svg>
