<?xml version="1.0" encoding="utf-8"?>
<!-- Generator: Adobe Illustrator 25.0.1, SVG Export Plug-In . SVG Version: 6.00 Build 0)  -->
<svg version="1.1" id="Layer_1" xmlns="http://www.w3.org/2000/svg" xmlns:xlink="http://www.w3.org/1999/xlink" x="0px" y="0px"
	 viewBox="0 0 32.4 29.7" style="enable-background:new 0 0 32.4 29.7;" xml:space="preserve">
<style type="text/css">
	.st0{fill:#C0BFBF;}
</style>
<path class="st0" d="M21.7,3.3H9.9C8.4,3.3,7.2,4.5,7.2,6v5.2h2V6c0-0.4,0.3-0.7,0.7-0.7h11.8c0.4,0,0.7,0.3,0.7,0.7v17.7
	c0,0.4-0.3,0.7-0.7,0.7H9.9c-0.4,0-0.7-0.3-0.7-0.7v-5.2h-2v5.2c0,1.5,1.2,2.7,2.7,2.7h11.8c1.5,0,2.7-1.2,2.7-2.7V6
	C24.4,4.5,23.2,3.3,21.7,3.3z M11.6,19l1.4,1.4l5.6-5.6l-5.6-5.6l-1.4,1.4l3.1,3.1H0v2h14.8L11.6,19z"/>
</svg>
