<?xml version="1.0" encoding="utf-8"?>
<!-- Generator: Adobe Illustrator 25.0.1, SVG Export Plug-In . SVG Version: 6.00 Build 0)  -->
<svg version="1.1" id="Layer_1" xmlns="http://www.w3.org/2000/svg" xmlns:xlink="http://www.w3.org/1999/xlink" x="0px" y="0px"
	 viewBox="0 0 18 15" style="enable-background:new 0 0 18 15;" xml:space="preserve">
<style type="text/css">
	.st0{display:none;}
	.st1{display:inline;fill:#AFAFAE;}
	.st2{display:none;fill:#AFAFAE;}
	.st3{fill:#003CBE;}
</style>
<g class="st0">
	<path class="st1" d="M14.7,15c0.1,0,0.2-0.1,0.2-0.3V0.8C14.9,0.3,14.5,0,14,0H4.1C3.6,0,3.2,0.4,3.2,0.8v13.9
		c0,0.2,0.1,0.3,0.3,0.3c0.1,0,0.1,0,0.2-0.1L9,9.6l5.4,5.4C14.4,15,14.6,15,14.7,15z M14.3,14.1L9.2,9C9.1,8.9,8.9,8.9,8.8,9
		l-5.1,5.1V0.8c0-0.2,0.2-0.3,0.3-0.3h9.9c0.2,0,0.3,0.1,0.3,0.3v13.3H14.3z"/>
</g>
<path class="st2" d="M16.2,15H1.8c-0.2,0-0.3-0.2-0.3-0.3v-4.1c0-0.2,0.2-0.3,0.3-0.3s0.3,0.2,0.3,0.3v3.7h13.6v-3.7
	c0-0.2,0.2-0.3,0.3-0.3c0.2,0,0.3,0.2,0.3,0.3v4C16.5,14.8,16.3,15,16.2,15z M9,12.8L9,12.8c-0.1,0-0.2,0-0.3-0.1L5,8.7
	C4.9,8.6,4.9,8.3,5,8.2s0.4-0.1,0.5,0l3.1,3.3V0.4C8.6,0.2,8.8,0,9,0s0.3,0.2,0.3,0.3v11.2l3.1-3.3c0.1-0.1,0.4-0.1,0.5,0
	s0.1,0.4,0,0.5l-3.7,4C9.2,12.8,9.1,12.8,9,12.8z"/>
<path class="st3" d="M16.4,9.1c0-0.4-0.2-0.8-0.5-1.1c0.3-0.3,0.5-0.7,0.5-1.1c0-0.8-0.6-1.4-1.4-1.4h-2.2c2.1-2,1.5-4.3,1.5-4.6
	c-0.1-0.5-0.6-0.8-1.1-0.9c-0.5,0-0.9,0.3-1.2,0.7C11.3,2.6,8.3,4,8.2,4c0,0-0.1,0-0.1,0.1l-3.7,3H2l0,0H1.9H1.8
	c-0.1,0-0.2,0.1-0.2,0.2v6.9c0,0.1,0.1,0.2,0.2,0.2l0,0h0.1l0,0h2.8l1.8,0.5h0.1H14c0.8,0,1.4-0.6,1.4-1.4c0-0.3-0.1-0.6-0.3-0.8
	c0.6-0.2,1.1-0.7,1.1-1.4c0-0.4-0.2-0.8-0.4-1C16.2,10,16.4,9.6,16.4,9.1z"/>
</svg>
